<svg width="14" height="14" viewBox="0 0 14 14" fill="none" xmlns="http://www.w3.org/2000/svg">
<g clip-path="url(#clip0_101_25)">
<path d="M1.7007 1.70068C2.83164 0.568923 4.32442 -0.00102982 5.80656 -0.000182161C7.28908 -0.00102982 8.78145 0.568923 9.91238 1.70068C11.0441 2.83162 11.6145 4.3244 11.6128 5.8061C11.6141 6.84131 11.3296 7.87783 10.7775 8.79638L13.5893 11.6081C14.1366 12.1554 14.1366 13.0423 13.5893 13.5897C13.0424 14.137 12.155 14.137 11.6081 13.5897L8.79599 10.7775C7.87785 11.3299 6.84092 11.6141 5.80656 11.6128C4.32444 11.6141 2.83164 11.0441 1.70073 9.91234C0.569381 8.78143 -0.000982081 7.28903 0.000275731 5.80607C-0.00144693 4.3244 0.569353 2.83162 1.7007 1.70068ZM3.28623 8.32727C3.98478 9.02539 4.89054 9.36976 5.80656 9.37148C6.72257 9.36976 7.6279 9.02542 8.32732 8.32727C9.02544 7.62788 9.3698 6.72252 9.37153 5.8061C9.3698 4.89052 9.02546 3.98476 8.32732 3.28577C7.62792 2.58766 6.72257 2.24329 5.80656 2.24157C4.89054 2.24329 3.98478 2.58763 3.28579 3.28577C2.58768 3.98476 2.24331 4.89052 2.24159 5.8061C2.24331 6.72255 2.58768 7.62788 3.28623 8.32727Z" fill="white"/>
</g>
<defs>
<clipPath id="clip0_101_25">
<rect width="14" height="14" fill="white" transform="matrix(-1 0 0 1 14 0)"/>
</clipPath>
</defs>
</svg>
