<svg width="14" height="14" viewBox="0 0 14 14" fill="none" xmlns="http://www.w3.org/2000/svg">
<g clip-path="url(#clip0_24_1903)">
<path d="M6.49715 4.93426L7.42531 4.00586L9.49129 6.07179L10.4194 7L9.49129 7.92821L7.42531 9.99414L6.49715 9.06574L7.90683 7.65625H0V6.34375H7.90683L6.49715 4.93426Z" fill="white"/>
<path d="M12.6875 14H11.375H5.25H3.9375H2.625V12.6875V11.8125V9.625H3.9375H4.375V12.25H12.25V1.75H4.375V4.375H3.9375H2.625V2.1875V1.3125V0H3.9375H5.25H11.375H12.6875H14V1.3125V2.625V11.375V12.6875V14H12.6875Z" fill="white"/>
</g>
<defs>
<clipPath id="clip0_24_1903">
<rect width="14" height="14" fill="white" transform="matrix(1 0 0 -1 0 14)"/>
</clipPath>
</defs>
</svg>
