<svg xmlns="http://www.w3.org/2000/svg" width="454.558" height="512.001" viewBox="0 0 454.558 512.001"><g transform="translate(-28.721 0.001)"><path d="M77.869,448.93c0,13.312,1.623,25.652,5.275,35.961,4.951,13.636,13.475,23.457,26.3,26.3a43.6,43.6,0,0,0,8.117.812H394.924a14.212,14.212,0,0,0,1.947-.082c26.463-1.7,37.258-29.219,37.258-62.988L445.25,179.606H66.748Zm253.66-209.258h52.68V451.934h-52.68Zm-101.871,0H282.34V451.934H229.658V239.672Zm-101.869,0h52.762V451.934H127.789V239.672Z" fill="#e45384"/><path d="M368.666,89.289c.078-2.028.242-4.059.242-6.09V77.6A77.7,77.7,0,0,0,291.308,0h-70.7a77.7,77.7,0,0,0-77.6,77.6v5.6c0,2.031.162,4.062.326,6.09H28.721v62.582H483.279V89.289ZM320.2,83.2a29.765,29.765,0,0,1-.648,6.09h-127.2a29.764,29.764,0,0,1-.65-6.09V77.6a28.961,28.961,0,0,1,28.9-28.9h70.7a28.909,28.909,0,0,1,28.9,28.9Z" fill="#e45384"/></g></svg>