<?xml version="1.0" encoding="UTF-8"?><svg id="_レイヤー_2" xmlns="http://www.w3.org/2000/svg" xmlns:xlink="http://www.w3.org/1999/xlink" viewBox="0 0 161.574306288 28.3464566929"><defs><style>.cls-1{fill:url(#_名称未設定グラデーション_2);}.cls-1,.cls-2,.cls-3{stroke-width:0px;}.cls-2{fill:#007848;}.cls-3{fill:#50646e;}</style><linearGradient id="_名称未設定グラデーション_2" x1="0" y1="14.1733500988" x2="23.4436754399" y2="14.1733500988" gradientUnits="userSpaceOnUse"><stop offset="0" stop-color="#68bc82"/><stop offset=".3" stop-color="#009650"/><stop offset=".5" stop-color="#008c4e"/><stop offset=".7000001875" stop-color="#00824c"/><stop offset="1" stop-color="#007848"/></linearGradient></defs><g id="logo"><path class="cls-3" d="M50.9633154686,1.5426761689c-.1225585938,0-.2290039062-.0448849486-.3198242188-.1356306056s-.1362304688-.19710347-.1362304688-.3200491989v-.0243939938c0-.1219699691.0454101562-.2283277821.1362304688-.3190734391s.197265625-.1366063654.3198242188-.1366063654h5.576171875c.1225585938,0,.2280273438.0458607084.3159179688.1366063654s.1318359375.19710347.1318359375.3190734391v.0243939938c0,.351273511-.05078125.6449771965-.1518554688.8791595371-.3413085938.7942684387-.8774414062,1.4499789924-1.6079101562,1.9661559016-.1069335938.075133501-.2241210938.1014790143-.3520507812.0800122997s-.2319335938-.0848910985-.3120117188-.1912489115l-.0717773438-.1044062935c-.0693359375-.0956244558-.0947265625-.2019822688-.076171875-.3200491989.0185546875-.1170911703.0786132812-.2127156261.1801757812-.2868733673.5971679688-.4264070119,1.0048828125-.9279475248,1.2236328125-1.5036457788.021484375-.0419576694.0083007812-.0634243839-.0400390625-.0634243839h-4.8159179688ZM53.0433935936,2.1817988069h.16015625c.1225585938,0,.2290039062.0458607084.3198242188.1366063654.0908203125.0897698972.1333007812.19710347.1279296875.3190734391-.0263671875,1.1035842802-.1733398438,1.9466407065-.4399414062,2.5301450386s-.7197265625,1.0567478121-1.3598632812,1.4187546804c-.1118164062.0644001437-.2309570312.07903654-.3559570312.0439091889-.1254882812-.0341515913-.22265625-.1083093325-.2919921875-.2195459443l-.0561523438-.1044062935c-.0639648438-.1005032545-.0815429688-.2088125871-.0517578125-.3229764781.029296875-.1151396508.0942382812-.2039337883.1958007812-.268333932.4584960938-.2771157698.7841796875-.6410741575.9760742188-1.0908994035.1918945312-.4508010057.2983398438-1.1152933973.3198242188-1.9944529344.0053710938-.1229457288.0522460938-.2273520224.1401367188-.3161461599.087890625-.0878183777.193359375-.1317275666.3159179688-.1317275666Z"/><path class="cls-3" d="M59.9919918996,6.4107415749l-.0961914062-.1444124434c-.0639648438-.106357813-.0810546875-.2166186651-.0517578125-.3317583159.029296875-.1141638911.0971679688-.2039337883.2041015625-.2673581722.431640625-.2663824125.7119140625-.63131656.83984375-1.0948024425s.1918945312-1.3143483868.1918945312-2.5506359934V.8469594653c0-.1219699691.0439453125-.2273520224.1323242188-.3151704001.087890625-.0887941375.1928710938-.1327033264.3159179688-.1327033264h.1918945312c.1225585938,0,.2280273438.0439091889.3159179688.1327033264.087890625.0878183777.1318359375.193200431.1318359375.3151704001v1.1748147422c0,.9806385514-.0478515625,1.7573433145-.1440429688,2.3301142893-.095703125.5737467346-.2504882812,1.0274750195-.4638671875,1.3631363745s-.5200195312.6205832027-.919921875.8557413031c-.1118164062.0634243839-.2294921875.0809880595-.3520507812.0517152669s-.2211914062-.1005032545-.2958984375-.2117398663ZM63.6560543996,6.70639678c-.123046875.0048787988-.2280273438-.0370788706-.3159179688-.1278245276-.0883789062-.090745657-.1323242188-.19710347-.1323242188-.3200491989V.8469594653c0-.1219699691.0454101562-.2273520224.1362304688-.3151704001.0903320312-.0887941375.197265625-.1327033264.3198242188-.1327033264h.2001953125c.1225585938,0,.2290039062.0439091889.3198242188.1327033264.0908203125.0878183777.1362304688.193200431.1362304688.3151704001v4.6846225725c0,.0419576694.0209960938.0585455852.0639648438.0478122279.4423828125-.1229457288.7890625-.3581038292,1.0400390625-.7074258207.2504882812-.3493219914.4262695312-.8411049068.5278320312-1.475348746.021484375-.1219699691.0825195312-.2205217041.1840820312-.2956552051.1010742188-.0741577412.2104492188-.1034305338.328125-.0878183777l.1118164062.0165879158c.1225585938.015612156.2241210938.0731819814.3041992188.1717337165.0795898438.098551735.1088867188.2088125871.087890625.3317583159-.298828125,2.0247014868-1.4028320312,3.0824250586-3.3120117188,3.1731707156Z"/><path class="cls-3" d="M70.0185321001,3.8766934973l-.072265625-.0556183059c-.0903320312-.0800122997-.138671875-.1824670737-.1435546875-.3083400818-.0053710938-.1248972483.0317382812-.2332065809.1118164062-.3239522379.6665039062-.7610926071,1.1040039062-1.6324460662,1.3120117188-2.6130846176.0263671875-.1278245276.0893554688-.2322308211.1879882812-.3122431208s.2119140625-.1170911703.33984375-.1122123716l.1362304688.0087818378c.1225585938.0107333573.2241210938.0634243839.3037109375.1600245994.080078125.0956244558.109375.2019822688.0883789062.3190734391-.0053710938.0536667864-.0190429688.1200184496-.0400390625.2000307493-.0107421875.0429334291.0078125.0644001437.0556640625.0644001437h3c.1279296875,0,.2373046875.0439091889.328125.1317275666s.1333007812.193200431.1279296875.3151704001c-.037109375,1.6948946904-.4453125,2.9643581286-1.2241210938,3.8093660744-.7783203125.844032186-2.0024414062,1.365087894-3.671875,1.562191364-.1279296875.0165879158-.2436523438-.015612156-.34765625-.0956244558s-.1669921875-.1834428335-.1879882812-.3112673611l-.0161132812-.0644001437c-.021484375-.1170911703.0048828125-.2254005029.080078125-.3239522379.07421875-.098551735.1728515625-.1561215604.2958984375-.1717337165,1.3173828125-.1756367555,2.2758789062-.55228002,2.8759765625-1.1309055533s.9477539062-1.4773002655,1.0439453125-2.6979757161c0-.0429334291-.021484375-.0634243839-.0639648438-.0634243839h-2.5278320312c-.0483398438,0-.080078125.0204909548-.0961914062.0634243839-.2827148438.6986439829-.6958007812,1.3406939001-1.240234375,1.9261497517-.0849609375.0966002155-.1918945312.1453882031-.3198242188.1483154824s-.2397460938-.0390303901-.3359375-.1239214886Z"/><path class="cls-3" d="M78.6133954665,5.2359268327l-.0239257812-.1122123716c-.0322265625-.1170911703-.0146484375-.2293035419.0517578125-.3356613549.0668945312-.106357813.1611328125-.1756367555.2841796875-.2078368273,2.0849609375-.5278860262,3.6533203125-1.3455726989,4.7041015625-2.4540357779.0102539062-.0048787988.01171875-.0146363963.00390625-.0282970328-.0083007812-.0126848768-.017578125-.0195151951-.0283203125-.0195151951h-4.1596679688c-.123046875,0-.2294921875-.0458607084-.3203125-.1366063654-.0903320312-.0897698972-.1357421875-.19710347-.1357421875-.3190734391v-.0565940657c0-.1219699691.0454101562-.2273520224.1357421875-.3151704001.0908203125-.0878183777.197265625-.1317275666.3203125-.1317275666h1.8481445312c.0478515625,0,.0717773438-.0243939938.0717773438-.0722062217V.4478737265c0-.1229457288.0439453125-.2283277821.1318359375-.3161461599.0883789062-.0878183777.193359375-.1317275666.3159179688-.1317275666h.2163085938c.1225585938,0,.2290039062.0439091889.3198242188.1317275666s.1362304688.193200431.1362304688.3161461599v.5991164881c0,.0478122279.0209960938.0722062217.0639648438.0722062217h1.9838867188c.1225585938,0,.2294921875.0439091889.3198242188.1317275666.0908203125.0878183777.1362304688.193200431.1362304688.3151704001v.0565940657c0,.3249279976-.0854492188.5991164881-.255859375.8235412312-.341796875.457631324-.7602539062.8713534591-1.2563476562,1.2382391261-.037109375.0273212731-.0400390625.0507395071-.0078125.0722062217.4477539062.3200491989.9624023438.6986439829,1.5439453125,1.1348085923.1010742188.075133501.1586914062.173685236.171875.2956552051.0131835938.1229457288-.0200195312.2322308211-.099609375.3278552769l-.0883789062.0966002155c-.080078125.0956244558-.1826171875.1512427617-.3076171875.1678306775-.1254882812.015612156-.2387695312-.0136606365-.3403320312-.0878183777-.4799804688-.362982628-1.0610351562-.7864623606-1.744140625-1.2714149577-.0209960938-.0107333573-.0502929688-.0429334291-.087890625-.0956244558-.0161132812-.0107333573-.0268554688-.0136606365-.0317382812-.007806078-.0053710938.0048787988-.0083007812.015612156-.0083007812.0312243121,0,.0058545585.0014648438.0165879158.0043945312.0322000718.0024414062.015612156.00390625.0292727926.00390625.0400061499v2.0539742793c0,.1229457288-.0454101562.2283277821-.1362304688.3161461599s-.197265625.1317275666-.3198242188.1317275666h-.2163085938c-.1225585938,0-.2275390625-.0439091889-.3159179688-.1317275666-.087890625-.0878183777-.1318359375-.193200431-.1318359375-.3161461599v-1.5426761689c0-.0478122279-.021484375-.0604971047-.0639648438-.0400061499-.6186523438.2556490552-1.328125.4830010776-2.1279296875.6801045476-.123046875.0312243121-.2387695312.0146363963-.3481445312-.0526910266-.109375-.0663516632-.1801757812-.1610003592-.2119140625-.2829703283Z"/><path class="cls-3" d="M88.1705778854,6.4107415749l-.0961914062-.1444124434c-.0639648438-.106357813-.0810546875-.2166186651-.0517578125-.3317583159.029296875-.1141638911.0971679688-.2039337883.2041015625-.2673581722.431640625-.2663824125.7119140625-.63131656.83984375-1.0948024425s.1918945312-1.3143483868.1918945312-2.5506359934V.8469594653c0-.1219699691.0439453125-.2273520224.1323242188-.3151704001.087890625-.0887941375.1928710938-.1327033264.3159179688-.1327033264h.1918945312c.1225585938,0,.2280273438.0439091889.3159179688.1327033264.087890625.0878183777.1318359375.193200431.1318359375.3151704001v1.1748147422c0,.9806385514-.0478515625,1.7573433145-.1440429688,2.3301142893-.095703125.5737467346-.2504882812,1.0274750195-.4638671875,1.3631363745s-.5200195312.6205832027-.919921875.8557413031c-.1118164062.0634243839-.2294921875.0809880595-.3520507812.0517152669s-.2211914062-.1005032545-.2958984375-.2117398663ZM91.8346403854,6.70639678c-.123046875.0048787988-.2280273438-.0370788706-.3159179688-.1278245276-.0883789062-.090745657-.1323242188-.19710347-.1323242188-.3200491989V.8469594653c0-.1219699691.0454101562-.2273520224.1362304688-.3151704001.0903320312-.0887941375.197265625-.1327033264.3198242188-.1327033264h.2001953125c.1225585938,0,.2290039062.0439091889.3198242188.1327033264.0908203125.0878183777.1362304688.193200431.1362304688.3151704001v4.6846225725c0,.0419576694.0209960938.0585455852.0639648438.0478122279.4423828125-.1229457288.7890625-.3581038292,1.0400390625-.7074258207.2504882812-.3493219914.4262695312-.8411049068.5278320312-1.475348746.021484375-.1219699691.0825195312-.2205217041.1840820312-.2956552051.1010742188-.0741577412.2104492188-.1034305338.328125-.0878183777l.1118164062.0165879158c.1225585938.015612156.2241210938.0731819814.3041992188.1717337165.0795898438.098551735.1088867188.2088125871.087890625.3317583159-.298828125,2.0247014868-1.4028320312,3.0824250586-3.3120117188,3.1731707156Z"/><path class="cls-3" d="M98.4361139806,1.5982944748c-.123046875,0-.2280273438-.0448849486-.3159179688-.1356306056-.0883789062-.090745657-.1323242188-.19710347-.1323242188-.3200491989v-.0800122997c0-.1219699691.0439453125-.2283277821.1323242188-.3190734391.087890625-.090745657.1928710938-.1366063654.3159179688-.1366063654h5.5517578125c.1225585938,0,.2280273438.0458607084.3159179688.1366063654.0883789062.090745657.1323242188.19710347.1323242188.3190734391v.5356921042c-.4536132812,1.396312206-1.4614257812,2.5233147204-3.0239257812,3.3810075429-.0375976562.0214667146-.04296875.0507395071-.0161132812.0887941375.0747070312.106357813.1787109375.2595520942.3120117188.4595828435.1333007812.1990549895.2290039062.3424916732.2880859375.4273827717.0688476562.106357813.0903320312.2185701846.0639648438.3356613549-.0268554688.1170911703-.09375.2078368273-.2001953125.2712612112l-.17578125.1122123716c-.1069335938.0692789424-.2216796875.090745657-.3442382812.0644001437-.1225585938-.0273212731-.2211914062-.0936729363-.2958984375-.2000307493-.6025390625-.8898928944-1.2294921875-1.7797857888-1.8798828125-2.6696786833-.0747070312-.1014790143-.1000976562-.2117398663-.076171875-.3317583159s.0864257812-.2146671456.1879882812-.283946088l.16796875-.1122123716c.1069335938-.0741577412.22265625-.0995274948.3481445312-.0761092607.125.0243939938.2250976562.086842618.2998046875.1883216323.05859375.0800122997.2563476562.3493219914.5922851562.8069533154.0263671875.0380546304.05859375.0458607084.095703125.0243939938.5708007812-.3034612831,1.0732421875-.6703469501,1.5083007812-1.0987054815.4345703125-.4293342912.7529296875-.8703776994.9560546875-1.3231302246.0209960938-.0429334291.0078125-.0644001437-.0400390625-.0644001437h-4.7680664062Z"/><path class="cls-3" d="M60.7223486717,26.2522484303c-.0248413086-.1562435304-.0703125-.3173048746-.1363525391-.4832450175l-4.6167602539-13.2695398313c-.2320556641-.6612601874-.5338745117-1.1166350669-.9060058594-1.3636852393-.3726806641-.2482698721-.7987060547-.3729841655-1.2786865234-.3729841655-.5133056641,0-.9556884766.1331912062-1.3278198242.3971952043-.3726806641.2652236978-.6744995117.7109019648-.9060058594,1.3394742005l-4.6421508789,13.3191816087c-.0661010742.1647204432-.1115112305.3221836733-.1363525391.4711090056-.0249023438.1489863172-.0375976562.2894347366-.0375976562.4214672282,0,.4795859184.1618041992.8683042099.4841918945,1.1662768444.323059082.2966919498.7321166992.445617282,1.2290649414.445617282.4793701172,0,.8520507812-.1077604677,1.1168823242-.3221226883.2642211914-.2143622207.4551391602-.5122738701.5708618164-.8925152488l.7139282227-2.2574201878h5.8202514648l.7139282227,2.2574201878c.1157836914.3802413786.3145141602.6781530281.5957641602.8925152488.2811889648.2143622207.6538696289.3221226883,1.1174926758.3221226883.4963378906,0,.8969116211-.1489253322,1.2035522461-.445617282.3060302734-.2979726345.4593505859-.6951678388.4593505859-1.1904878832,0-.1320324915-.0126953125-.2773597097-.0375366211-.4347619548ZM51.7672705467,21.9493308761l1.9924316406-6.299931858,1.9924316406,6.299931858h-3.9848632812Z"/><path class="cls-3" d="M65.3735350348,28.1245418425c-.4557328265-.132005438-.8563171328-.3584734829-1.2041770296-.681826253-.3472538691-.322141711-.6248145534-.7472234425-.8314699973-1.2764562535-.2072614716-.529232811-.3102861797-1.1819936465-.3102861797-1.9594935655v-11.8804894178c0-.4795793893.1448406191-.8598519354.4345218572-1.1408176383.2890752104-.2809657028.6823871844-.4226596133,1.1787238664-.4226596133.4636111865,0,.839954385.1416939105,1.1296356231.4226596133.2890752104.2809657028.4345218572.6612382489.4345218572,1.1408176383v11.3343017799c0,.2979205297.0206049416.5582982285.0618148249.7811330963.0412098832.2240459268.1121151235.4141821999.2108976378.5704088191.099388542.1574376783.2193820255.2773325257.3599804507.359684542.1405984252.0835630754.3102861797.1404828514.5090632636.1743925052.4466424111.0653971895.7696551724.2192016906.9678262286.4577803262.1987770839.2410007537.2981656258.5425544607.2981656258.9058721799,0,.4299259677-.1448406191.7726556828-.4345218572,1.0294002044-.2896812381.2555334625-.7490502308.3839057233-1.3775009503.3839057233-.4963366821,0-.9726744502-.0653971895-1.4271952213-.1986136865Z"/><path class="cls-3" d="M81.3435433295,26.2776791689c-.0582275391-.1574632301-.1533203125-.3015707486-.2854614258-.4347619548l-3.9866943359-4.7087726264,3.1673583984-3.2527561204c.1157226562-.1150786658.2145385742-.260405884.2975463867-.4335422551.0830078125-.1744170558.1242675781-.351212526.1242675781-.5328867949,0-.4468979667-.1364135742-.7981104927-.4097290039-1.0548572776-.2727050781-.2555270852-.6326904297-.3839004777-1.079284668-.3839004777-.2654418945,0-.4884643555.0497027624-.6702880859.1489863172-.182434082.0980638551-.3563232422.2313160464-.5211791992.3960364896l-3.9222412109,4.1063019641v-7.8012602074c0-.4795859184-.1454467773-.859827297-.4345092773-1.1408461058-.2896728516-.2809578238-.666015625-.4226259429-1.1296386719-.4226259429-.4963378906,0-.8896484375.1416681191-1.1787109375.4226259429-.2896728516.2810188088-.4345092773.6612601874-.4345092773,1.1408461058v14.4345969759c0,.4795859184.1448364258.859888282.4345092773,1.1408461058.2890625.2809578238.666015625.4214062432,1.1290283203.4214062432.4969482422,0,.8896484375-.1404484194,1.1793212891-.4214062432.2890625-.2809578238.4345092773-.6612601874.4345092773-1.1408461058v-2.5361825521l.9443359375-.9674657948,3.5736083984,4.3720135417c.1484985352.1985671097.3303222656.3632875529.5460205078.4953200444.2145385742.1331912062.471496582.1985671097.7690429688.1985671097.447265625,0,.8151245117-.1356306056,1.1047973633-.4093312162.2896728516-.2724809109.4345703125-.6406472626.4345703125-1.1032793553,0-.1985671097-.0291137695-.3754235648-.0866699219-.5328258099Z"/><path class="cls-3" d="M87.6449881632,27.9138175653c-.8108650557-.2724882894-1.5059788216-.6975700209-2.0853412979-1.2764562535s-1.034489275-1.3188433207-1.3653803964-2.2198712643-.4963366821-1.9800815696-.4963366821-3.2371608781v-8.705092552c0-.5122779841.1527189791-.926460184.4593689927-1.2401244815.3060439859-.3148753566.7405658431-.472313035,1.3029595438-.472313035.5133054575,0,.9266163454.1574376783,1.241144719.472313035.3145283736.3136642976.4720955743.7278464975.4720955743,1.2401244815v8.705092552c0,1.4556929949.252107521,2.5214249712.7569285908,3.1996180471s1.2865967961,1.0172896138,2.3459332066,1.0172896138c1.0587303828,0,1.8405061091-.3390965379,2.3453271789-1.0172896138s.7575346185-1.7439250522.7575346185-3.1996180471v-8.705092552c0-.5122779841.156961173-.926460184.4714895466-1.2401244815.3139223459-.3148753566.7278392615-.472313035,1.241144719-.472313035.5623937008,0,.996915558.1574376783,1.3029595439.472313035.3060439859.3136642976.4593689927.7278464975.4593689927,1.2401244815v8.6808713707c0,1.2558682494-.1654455607,2.3397661116-.4963366821,3.2480604096-.3314971491.9107164161-.7860179202,1.6543066814-1.3653803964,2.233192914s-1.2744762422,1.0039679641-2.0853412979,1.2764562535c-.8108650557.2736993485-1.6877871301.4093379636-2.6307662232.4093379636-.9435851208,0-1.8205071952-.1356386152-2.6313722509-.4093379636Z"/><path class="cls-3" d="M121.5974839733,22.2472722049c-.2818028781.2967094707-.6623882704.4456697355-1.141756177.4456697355h-5.4857626935v.1489602649c0,.4141821999.0406038556.7896105097.1236296497,1.1287070476s.2151398317.6321728314.3975541678.8804399395c.1818083084.2482671081.4217952756.4432476174.7199609014.5825194098.2975595982.1416939105.653297855.2107242771,1.0672147706.2107242771.5290621776,0,.9266163454-.0617640123,1.191450448-.1852920368.2642280749-.1247390836.4799739343-.2773325257.645419495-.4589913853.1490828129-.1489602649.3181645398-.2724882894.5090632636-.3717951326.1896866685-.0993068432.409068694-.1489602649.6575400489-.1489602649.3969481401,0,.7235970676.1235280245.9805528102.3717951326.2563497149.2482671081.3848275862.5788862326.3848275862.9918573734,0,.2325233403-.0539364648.4638356215-.1612033668.6951479027-.1078729297.2313122812-.2696823242.4456697355-.4842161282.644283422-.1490828129.133216497-.3230127613.2688551122-.5211838175.4093379636-.1987770839.1404828514-.4430062449.265221935-.732687483.3717951326-.2896812381.1077842567-.6369351072.1949805093-1.0423676351.2603776988-.4054325278.0666082485-.8732859082.0993068432-1.4023480858.0993068432-.9272223731,0-1.737481401-.1404828514-2.432595167-.4214485543s-1.2702340483-.6697156624-1.7253608471-1.1650388196c-.4551267988-.4965342162-.7945023079-1.0923752757-1.0175204996-1.7863121194-.2236242194-.6939368437-.3351333152-1.438738168-.3351333152-2.2319818549v-1.6870052761c0-1.8686641357.4502785772-3.2613820593,1.3526538148-4.1793648298.9017692099-.9167717114,2.1550344828-1.3757630967,3.7604018463-1.3757630967,1.6883931578,0,2.9622633723.4626245624,3.8228226989,1.3890847464.8605593266.9252491249,1.29083899,2.2489366818,1.29083899,3.9674294937v.2736993485c0,.4626245624-.1405984252.8428971085-.4217952756,1.1408176383ZM115.5408431913,18.7497336281c-.2981656258.397227373-.488458322.9349375974-.5708780885,1.6119196142v.075085662h3.8967580777v-.075085662c-.049694271-.77628886-.2357447733-1.3394313248-.5581515069-1.6857942171-.3230127613-.3475739514-.782381754-.5207553975-1.378106978-.5207553975-.6290567472,0-1.0920619061.1974026274-1.3896215042.5946300004Z"/><path class="cls-3" d="M126.7200653446,28.1245418425c-.4557328265-.132005438-.8563171328-.3584734829-1.2041770296-.681826253-.3472538691-.322141711-.6248145534-.7472234425-.8314699973-1.2764562535-.2072614716-.529232811-.3102861797-1.1819936465-.3102861797-1.9594935655v-11.8804894178c0-.4795793893.1448406191-.8598519354.4345218572-1.1408176383.2890752104-.2809657028.6823871844-.4226596133,1.1787238664-.4226596133.4636111865,0,.839954385.1416939105,1.1296356231.4226596133.2890752104.2809657028.4345218572.6612382489.4345218572,1.1408176383v11.3343017799c0,.2979205297.0206049416.5582982285.0618148249.7811330963.0412098832.2240459268.1121151235.4141821999.2108976378.5704088191.099388542.1574376783.2193820255.2773325257.3599804507.359684542.1405984252.0835630754.3102861797.1404828514.5090632636.1743925052.4466424111.0653971895.7696551724.2192016906.9678262286.4577803262.1987770839.2410007537.2981656258.5425544607.2981656258.9058721799,0,.4299259677-.1448406191.7726556828-.4345218572,1.0294002044-.2896812381.2555334625-.7490502308.3839057233-1.3775009503.3839057233-.4963366821,0-.9726744502-.0653971895-1.4271952213-.1986136865Z"/><path class="cls-3" d="M104.323613056,15.4762409781c.745634556,0,1.439036357.09923134,2.0802054032.2994660082.6411690462.1993486741,1.1908109714.5103326056,1.6489257757.9338377887s.8175144939.9675055648,1.0796366675,1.6337731332c.261642974.6644955802.392464461,1.4574603059.392464461,2.3762361949v6.3508057587c0,.3747755072-.1212374953.6777854918-.3632332863.9072579655-.241995791.2303584678-.8690464611.3455377017-1.313743677.3455377017-.4058820494,0-.7331753667-.1151792339-.9814007523-.3455377017-.2487045852-.2294724737-.372817278-.5324824583-.372817278-.9072579655v-5.8020625302c0-1.0649649166-.1998262274-1.8446397307-.5989994826-2.3407964306s-.7338761543-.7442350498-1.5710378312-.7442350498c-.8376408765,0-1.1723437756.2480783499-1.5715170308.7442350498s-.598520283,1.275831514-.598520283,2.3407964306v5.8020625302c0,.3747755072-.1245918924.6777854918-.3732964776.9072579655-.2487045852.2303584678-.5755187029.3455377017-.9814007523.3455377017-.4446972159,0-1.0717478861-.1151792339-1.313743677-.3455377017-.2424749906-.2294724737-.3632332863-.5324824583-.3632332863-.9072579655v-6.3685256408c0-.919661883.130821487-1.7090826323.392464461-2.3682622479s.6215218632-1.2005220149,1.0796366675-1.6240271981,1.0077567296-.7344891147,1.6489257757-.9338377887c.6411690462-.2002346682,1.3345708473-.2994660082,2.0806846028-.2994660082Z"/><path class="cls-3" d="M148.7797342839,18.3432887402c-.2498779297-.6662609561-.5924682617-1.2102470182-1.0291748047-1.6337877358-.436706543-.4234797327-.9606933594-.7344421688-1.5718994141-.9338020833-.6112060547-.2002137042-1.2721557617-.2994972591-1.9829711914-.2994972591-.7112426758,0-1.372253418.0992835548-1.9834594727.2994972591-.5899658203.1924076262-1.0944213867.4942832997-1.5217895508.895503513-.4273681641-.4012202133-.9318847656-.7030958868-1.5218505859-.895503513-.6112060547-.2002137042-1.2722167969-.2994972591-1.9829711914-.2994972591-.7112426758,0-1.372253418.0992835548-1.9834594727.2994972591-.6112060547.1993599145-1.1351318359.5103223506-1.5718383789.9338020833-.436706543.4235407176-.7797851562.9649044254-1.0291748047,1.6240301383-.2494506836.6591866979-.3741455078,1.4486373228-.3741455078,2.3682908897v6.3685399656c0,.37475273.1151123047.6777871182.3462524414.90721263.2307128906.2304012716.8284301758.3455409224,1.2523803711.3455409224.3869018555,0,.698425293-.1151396508.9354858398-.3455409224.237121582-.2294255118.3558959961-.5324599.3558959961-.90721263v-5.8020504442c0-1.064980785.1900024414-1.8446738124.5705566406-2.3408476466.3804931641-.4961128492.6995239258-.7441997664,1.498046875-.7441997664.798034668,0,1.1170654297.2480869171,1.4976196289.7441997664.334777832.4365915043.5135498047,1.1060846646.5538330078,1.9828657874v6.1600323035c0,.37475273.1151123047.6777871182.3462524414.90721263.0704345703.0703156872.1807861328.126177933.3041992188.1750269056.1903686523.1010521194.4014282227.1705140168.6576538086.1705140168.0449829102,0,.0969848633-.0065253933.1452636719-.0091477477.0482788086.0026223543.1002807617.0091477477.1452636719.0091477477.2562255859,0,.4670410156-.0694618974.6574707031-.1704530318.1234741211-.0488489726.2338867188-.1047112185.3043212891-.1750878906.2307128906-.2294255118.3462524414-.5324599.3462524414-.90721263v-6.1504576609c.0391845703-.8816599215.2178344727-1.554263316.553894043-1.9924404299.3804931641-.4961128492.6995849609-.7441997664,1.498046875-.7441997664.798034668,0,1.1171264648.2480869171,1.4976196289.7441997664.3804931641.4961738342.5709838867,1.2758668616.5709838867,2.3408476466v5.8020504442c0,.37475273.118347168.6777871182.3554077148.90721263.2366333008.2304012716.5486450195.3455409224.935546875.3455409224.4238891602,0,1.0216674805-.1151396508,1.2523193359-.3455409224.2307128906-.2294255118.3462524414-.5324599.3462524414-.90721263v-6.3507933351c0-.9187997771-.1246948242-1.7117875311-.3740844727-2.3762799226Z"/><path class="cls-3" d="M161.574306288,24.797756549v-4.8321452501c0-.8937349484-.112121582-1.6288479521-.335144043-2.2077784103-.2236328125-.5788694733-.5508422852-1.0378424669-.9805297852-1.376918981-.4309082031-.3379177993-.9556884766-.5740516595-1.5762939453-.706084151-.6205444336-.1331912062-1.3283691406-.1986280946-2.1223144531-.1986280946-.8775024414,0-1.6259765625.0739138013-2.2465209961.2228391335-.6206054688.1489863172-1.1211547852.3633485379-1.5017700195.6443063617-.3314819336.2325357461-.5587158203.4674499065-.6829833984.7072428657-.1235961914.2397929592-.1860351562.4844647172-.1860351562.7315148896,0,.4311028557.1321411133.765361556.3969726562,1.0051545152s.5872192383.3596894388.9683837891.3596894388c.2976074219,0,.5248413086-.0496417774.682434082-.1489863172.1575317383-.0992835548.3017578125-.2143622207.4345092773-.3475534269.1320800781-.1150786658.260559082-.2107031216.3848266602-.2846169229.124206543-.075072516.2563476562-.1331912062.3969116211-.1743560708.140625-.0411648646.2939453125-.0654368884.4594116211-.0739138013.1654052734-.0084769129.3635864258-.0120750269.595703125-.0120750269.4466552734,0,.8151245117.0290288526,1.1047973633.0859888282.2890625.0581186903.5169677734.1610613442.6823730469.3099866764.1654663086.1489863172.2769775391.339137499.335144043.5704535454.0581665039.2325357461.0872802734.520750783.0872802734.8683042099v.7193788776h-2.4574584961c-.6453857422,0-1.2502441406.0738528163-1.8126220703.2228391335-.5623779297.1489253322-1.0508422852.3766432645-1.4641723633.6830318269-.4138793945.3051688626-.7369384766.6939481391-.9684448242,1.1650571447s-.3472290039,1.0378424669-.3472290039,1.6991026543.1072387695,1.2364705616.3223876953,1.7233136932c.2151489258.4880628313.5006103516.8937959334.8569335938,1.2159186218.3551635742.3221226883.7733154297.5619156476,1.2532958984.7193788776.4799804688.1562435304.9841918945.2349141605,1.514465332.2349141605l.8348388672.0233411425c5.1976318359,0,5.3708496094-3.5487001439,5.3708496094-3.5487001439M158.4714620498,23.4619414477c0,.429944141-.046081543.7896335798-.1369628906,1.0790683165s-.2230224609.5255685968-.3969726562.7072428657c-.1738891602.1816742689-.3933105469.3136457755-.6575317383.3960364896-.2654418945.0835494288-.5799560547.1247142934-.9436035156.1247142934-.5460205078,0-.9847412109-.1150176808-1.3156738281-.3475534269-.330871582-.2313160464-.4963378906-.5788694733-.4963378906-1.041501566,0-.2313160464.0369873047-.4384210539.1115112305-.6200953228.0745849609-.181613284.1903076172-.3305996012.3479003906-.4468369817.1569213867-.1150786658.3472290039-.197408395.5708618164-.2471111574.2230224609-.0496417774.4999389648-.075072516.8314819336-.075072516h2.0853271484v.4711090056Z"/><path class="cls-2" d="M36.1340070401,18.5923808313c-.6658325195-.3104135713-1.2775878906-.5771618937-1.8361816406-.8101245346.0220336914-.4201255585.0935668945-3.2571470393-1.6951293945-7.0452903391-.2685546875-.6472336409-.630065918-1.3100184529-1.0183105469-1.8979137039-1.0894165039-1.8112540409-2.6077880859-3.7624076363-4.7349243164-5.7250264087C24.7581525479,1.1678730183,22.5964093839-.0195656157,21.8102765714.0002545043c-.3475341797,0-.6293334961.2810797937-.6293334961.6279014008,2.1463012695,18.3216579206-7.4860839844,21.6843089832-13.1102905273,22.5274263945-2.7150268555.1599636145-2.5740356445-1.6279941623-2.5740356445-1.6279941623-.12890625-1.5176113403,1.964050293-2.7071234638,2.3311157227-2.903617084.4306640625-.2199118543.8699951172-.4345180149,1.3157348633-.6385127881,0,0,1.0614013672-.4839158523,1.8743286133-.753286529,2.5034179688-.8622057114,4.9935302734-1.1707287482,6.0419921875-1.3213006751.2293701172-.0359811409.3605957031-.1610613442.3605957031-.3597504238s-.1614379883-.3598114088-.3605957031-.3598114088c-.8115844727.0218326245-3.7711791992.0768410805-6.9074707031.8945887382-.6705322266.1674037826-1.9393920898.57197817-1.9393920898.57197817-.6262207031.2007015841-2.39453125.6300968603-4.8505249023,1.9345046946-.8299560547.4407994683-1.7216796875,1.0988274515-2.3801269531,2.0180541234C.3714337979,21.3448771236.0038190518,22.2880099095.0038190518,23.3170095536c-.0067749023.0919653567-.002746582.1478885875.0092773438.1818572239.0295410156.6838246317.2255249023,1.2992241107.5449829102,1.8272930918,1.2924194336,2.706330659,4.3086547852,3.0108896718,5.7235107422,2.9958873656l-.0001220703.00012197c14.7639770508.1281294525,16.4272460938-12.379220042,16.4272460938-12.379220042l-.0036621094.0027443243c1.5220947266-6.1547875948.2932128906-12.7958084714-.1317138672-14.7377533341.0004882812.0023174294.0009155273.003842054.0014038086.0061594834.7654418945.4634248975,1.7414550781,1.0704694336,2.9508666992,2.4608051112,0,0,4.7161254883,5.546340404,4.8689575195,12.7081120636-.3616943359-.1088581974-.7615356445-.224973608-1.0504760742-.2971188447-3.1362915039-.8177476577-3.9916381836-.8727561138-4.8032836914-.8945887382-.1991577148,0-.3605957031.1611223292-.3605957031.3598114088s.1312255859.3237692829.3605957031.3597504238c1.0485229492.1505719268,1.434387207.4590949636,3.9378051758,1.3213006751.8129882812.2693706767,1.8743286133.753286529,1.8743286133.753286529,2.9116210938,1.3322169873,5.6013793945,3.0861451427,6.7735595703,4.2180264558.2080078125.2060072778.3814086914.378777739.5366210938.5253246568.2073974609.1842966233.5486450195.3651780874.8482666016.3651780874.6483154297,0,1.1738891602-.5244708671,1.1738891602-1.1713995831.0297241211-1.0995592713-1.8590087891-2.5202654711-3.5512695312-3.3302070508Z"/><path class="cls-1" d="M22.4390088041.6286483813C22.3141919096.2529237873,22.1572705229.0002435047,21.8097363432.0002435047s-.6293334961.2813051745-.6293334961.6284048766c2.1463012695,18.3367761763-7.4860839844,21.7021845773-13.1102905273,22.5459780329-2.7150268555.1600918795-2.5740356445-1.6292995514-2.5740356445-1.6292995514-.12890625-1.518889254,1.964050293-2.7093551746,2.3311157227-2.906006351.4306640625-.2200881881.8699951172-.4348664283,1.3157348633-.6390247726,0,0,1.0614013672-.4843649088,1.8743286133-.7539515774,2.5034179688-.8628970615,4.9935302734-1.1716674841,6.0419921875-1.3223601454.2293701172-.036009992.3605957031-.1611904894.3605957031-.3600388857s-.1614379883-.3600999196-.3605957031-.3600999196c-.8115844727.0218501307-3.7711791992.0769026947-6.9074707031.8953060543-.6705322266.1675380134-1.9393920898.5724368044-1.9393920898.5724368044-.6262207031.2008625145-2.39453125.6306020965-4.8505249023,1.9361168897-.8299560547.4411529184-1.7216796875,1.0997085341-2.3801269531,2.0196722778C.3708935697,21.3624693444.0032788236,22.3063583709.0032788236,23.336183107c-.0067749023.0920390981-.002746582.1480071703.0092773438.1820030441.0295410156.6844339828.2255249023,1.300326913.5449829102,1.8288193204,1.2924194336,2.7085617341,4.3086547852,3.0133649542,5.7235107422,2.9983506186l-.0001220703.0001220678c14.7639770508.1282321917,16.4272460938-12.389390318,16.4272460938-12.389390318l-.0036621094.0027465248c1.8059692383-7.3088076899-.2655029297-15.3301859833-.2655029297-15.3301859833Z"/></g></svg>