<?xml version="1.0" encoding="utf-8"?>
<!-- Generator: Adobe Illustrator 15.0.0, SVG Export Plug-In . SVG Version: 6.00 Build 0)  -->
<!DOCTYPE svg PUBLIC "-//W3C//DTD SVG 1.1//EN" "http://www.w3.org/Graphics/SVG/1.1/DTD/svg11.dtd">
<svg version="1.1" id="_x32_" xmlns="http://www.w3.org/2000/svg" xmlns:xlink="http://www.w3.org/1999/xlink" x="0px" y="0px"
	 width="720.647px" height="800px" viewBox="639.676 0 720.647 800" enable-background="new 639.676 0 720.647 800"
	 xml:space="preserve">
<g>
	<path fill=" #141414" d="M809.339,383.973c7.284,2.685,15.244,4.007,23.447,3.617c12.302-0.555,23.686-4.871,32.891-11.737
		c9.219-6.875,16.337-16.289,20.38-27.231c2.703-7.293,4.006-15.248,3.623-23.448c-0.555-12.302-4.873-23.69-11.739-32.891
		c-6.872-9.209-16.3-16.339-27.235-20.394c-7.285-2.685-15.246-3.997-23.438-3.617c-12.309,0.564-23.691,4.872-32.9,11.739
		c-9.209,6.885-16.334,16.3-20.38,27.24c-2.703,7.284-4.008,15.25-3.623,23.438c0.56,12.313,4.872,23.69,11.743,32.901
		C788.975,372.789,798.408,379.928,809.339,383.973z M798.525,308.777c3.699-6.067,9.146-11.038,15.603-14.12
		c4.305-2.042,9.06-3.308,14.194-3.541c7.688-0.35,14.777,1.614,20.86,5.33c6.069,3.695,11.033,9.141,14.116,15.6
		c2.058,4.299,3.313,9.044,3.545,14.188c0.35,7.692-1.619,14.773-5.32,20.861c-3.706,6.078-9.15,11.028-15.609,14.122
		c-4.303,2.052-9.054,3.306-14.185,3.539c-7.696,0.35-14.787-1.633-20.875-5.319c-6.063-3.715-11.028-9.151-14.11-15.609
		c-2.057-4.3-3.312-9.055-3.544-14.18C792.854,321.946,794.825,314.856,798.525,308.777z"/>
	<path fill=" #141414" d="M1065.411,631.899c1.196,25.898,23.17,45.933,49.084,44.727c25.898-1.187,45.932-23.166,44.731-49.074
		c-1.197-25.909-23.172-45.942-49.075-44.735C1084.244,584.011,1064.209,605.981,1065.411,631.899z"/>
	<path fill=" #141414" d="M975.773,612.75c-23.239,1.079-41.211,20.793-40.136,44.035s20.792,41.216,44.031,40.137
		c23.237-1.08,41.211-20.793,40.136-44.027C1018.729,629.652,999.011,611.681,975.773,612.75z"/>
	<path fill=" #141414" d="M848.216,634.845c20.7-0.953,36.703-18.508,35.745-39.213c-0.956-20.695-18.511-36.702-39.213-35.738
		c-20.704,0.962-36.703,18.516-35.75,39.212C809.958,619.811,827.511,635.809,848.216,634.845z"/>
	<path fill=" #141414" d="M756.745,492.04c0.749,16.192,14.477,28.698,30.674,27.95c16.183-0.739,28.714-14.471,27.966-30.662
		c-0.749-16.192-14.491-28.7-30.679-27.96C768.513,462.125,755.995,475.837,756.745,492.04z"/>
	<path fill=" #141414" d="M1040.252,406.05l-0.313-0.972l-48.047-33.885l-1.011,0.029c-24.188,0.534-49.7,15.707-66.568,39.64
		c-15.999,22.698-23.667,46.146-31.088,68.826c-5.063,15.463-10.294,31.471-18.161,47.226c-6.511,13.051-10.399,17.915-10.41,17.934
		l-3.983,4.727l4.396,1.858c20.442,8.626,49.76,6.282,80.424-6.39c32.214-13.305,60.559-35.691,79.805-62.98
		C1042.172,458.128,1047.896,429.011,1040.252,406.05z M997.178,491.555c-0.881,0.709-1.813,1.478-2.776,2.353
		c-10.751,9.667-22.967,7.741-13.196-10.271c9.787-18.011-3.117-21.648-15.516-9.016c-15.551,15.843-20.687,5.533-17.18-2.548
		c3.497-8.063,13.979-19.841,7.123-25.625c-4.133-3.481-10.839,3.306-21.372,12.709c-6.027,5.397-18.409,5.554-10.795-15.803
		c3.692-8.054,8.028-15.909,13.45-23.612c11.764-16.697,29.657-27.989,46.759-29.546l41.148,29
		c4.288,16.632-0.345,37.268-12.121,53.984C1008.167,479.581,1002.95,485.748,997.178,491.555z"/>
	<path fill=" #141414" d="M1019.74,359.192l22.164,15.609c6.813,4.825,16.33,5.185,26.283,1.041c9.953-4.162,19.494-12.477,26.385-23
		l31.207-47.682l-68.602-48.382l-34.426,45.415c-7.611,10.026-12.226,21.805-12.801,32.579
		C1009.378,345.548,1012.927,354.378,1019.74,359.192z"/>
	<path fill=" #141414" d="M1284.029,55.181c12.921-19.742,13.008-42.285,0.229-51.309l-0.169-0.098
		c-12.784-9.016-33.979-1.362-48.232,17.447l-166.435,219.42l67.44,47.547L1284.029,55.181z"/>
	<path fill=" #141414" d="M1360.119,422.981l-0.146-3.453c-1.178-25.498-5.922-48.139-14.097-67.298
		c-7.658-17.991-18.263-32.822-31.53-44.094c-8.212-7.002-17.359-12.526-27.186-16.406c-10.952-4.318-22.45-6.516-34.18-6.516
		c-1.409,0-2.8,0.029-4.201,0.097c-11.229,0.525-21.969,3.044-31.922,7.497c-10.236,4.609-18.955,10.95-25.91,18.857
		c-14.695,16.718-34.509,28.698-56.523,34.846l-14.855,22.688c-4.449,6.799-9.758,12.789-15.497,18.101
		c1.435-0.039,2.868-0.039,4.313-0.106c42.615-1.975,82.606-20.803,109.716-51.651c3.448-3.919,8.141-7.294,13.566-9.744
		c5.729-2.567,12.219-4.075,18.794-4.365l2.528-0.049c8.229,0,16.237,1.76,23.813,5.231c9.4,4.338,17.662,11.115,24.561,20.161
		c5.281,6.943,9.711,15.161,13.169,24.43c5.31,14.2,8.45,31.014,9.331,49.997l0.122,3.172
		c2.135,65.168-14.481,128.781-48.047,183.943c-32.899,54.003-80.048,96.862-136.353,123.928
		c-38.916,18.702-80.809,29.226-124.513,31.257c-5.097,0.232-10.169,0.35-15.211,0.35c-59.466,0-117.71-16.349-168.432-47.294
		c-53.927-32.899-96.79-80.302-123.962-137.097c-18.731-39.115-29.254-81.146-31.281-124.901
		c-3.272-71.188,16.629-139.781,57.553-198.375c39.305-56.25,96.981-100.228,162.396-123.831c3.613-1.303,8.033-2.12,12.43-2.305
		c0.807-0.039,1.624-0.06,2.445-0.06c5.13,0,10.314,0.76,14.977,2.198c5.66,1.713,10.699,4.435,14.578,7.877
		c2.71,2.412,4.883,5.146,6.653,8.364c2.659,4.931,4.114,10.63,4.45,17.438c0.222,4.881-0.17,10.22-1.183,15.872
		c-0.636,3.646-1.429,7.469-2.325,11.787c-0.865,4.172-1.775,8.56-2.602,13.188c-1.381,7.818-2.898,18.275-2.362,29.896
		c1.459,31.646,12.195,61.745,31.053,87.041c1.96,2.625,4.026,5.144,6.132,7.634c1.123-14.256,6.438-28.748,15.043-41.759
		c-1.453-2.549-3.087-4.979-4.355-7.644c-7.041-14.705-10.994-30.508-11.758-46.944c-0.293-6.243,0.297-13.196,1.857-21.901
		c0.666-3.813,1.482-7.771,2.445-12.391c0.831-4.016,1.697-8.217,2.479-12.594c1.469-8.267,2.038-16.289,1.688-23.875
		c-0.587-13.498-4.326-26.112-10.818-36.478c-5.874-9.463-14.291-17.486-24.333-23.195c-5.932-3.403-12.463-6.039-19.408-7.848
		c-7.225-1.867-14.742-2.82-22.344-2.82c-1.332,0-2.659,0.03-3.969,0.088c-8.222,0.4-15.978,1.888-23.048,4.436
		c-73.398,26.474-135.557,73.885-179.76,137.108c-45.572,65.141-67.713,141.482-64.031,220.773
		c3.322,72.121,27.8,140.753,70.795,198.472c41.955,56.27,98.814,98.837,164.421,123.083C915.169,792.531,957.061,800,999.794,800
		c5.625,0,11.271-0.127,16.949-0.399c48.574-2.246,95.177-13.946,138.507-34.777c41.775-20.072,78.872-47.81,110.261-82.44
		C1329.685,611.66,1363.279,519.532,1360.119,422.981z"/>
</g>
</svg>
