<?xml version="1.0" encoding="utf-8"?>
<!-- Generator: Adobe Illustrator 15.0.0, SVG Export Plug-In . SVG Version: 6.00 Build 0)  -->
<!DOCTYPE svg PUBLIC "-//W3C//DTD SVG 1.1//EN" "http://www.w3.org/Graphics/SVG/1.1/DTD/svg11.dtd">
<svg version="1.1" id="_x32_" xmlns="http://www.w3.org/2000/svg" xmlns:xlink="http://www.w3.org/1999/xlink" x="0px" y="0px"
	 width="721.151px" height="800px" viewBox="639.425 0 721.151 800" enable-background="new 639.425 0 721.151 800"
	 xml:space="preserve">
<g>
	<path fill="#3D4451" d="M843.604,172.076h201.572c23.875,0,43.208-19.347,43.208-43.222v-4.964V90.536v-4.963
		c0-23.875-19.333-43.222-43.208-43.222h-54.625C988.367,18.639,968.662,0,944.391,0c-24.297,0-44.003,18.639-46.188,42.352h-54.599
		c-23.876,0-43.234,19.347-43.234,43.222v4.963v33.355v4.965C800.37,152.732,819.729,172.076,843.604,172.076z M944.391,25.414
		c11.689,0,21.17,9.481,21.17,21.169c0,11.701-9.48,21.183-21.17,21.183c-11.714,0-21.195-9.481-21.195-21.183
		C923.195,34.894,932.675,25.414,944.391,25.414z"/>
	<path fill="#3D4451" d="M1350.141,251.556c0.125,0.113,0.2,0.249,0.299,0.372c0.098,0.086,0.223,0.148,0.297,0.234
		L1350.141,251.556z"/>
	<path fill="#3D4451" d="M1350.44,251.93c-13.948-13.675-36.334-13.625-50.181,0.234l-31.768,31.767l49.885,49.885l31.767-31.768
		C1363.966,288.212,1364.041,265.876,1350.44,251.93z"/>
	<path fill="#3D4451" d="M1038.872,628.072l108.258-108.243l-64.651-64.652L974.222,563.445c-6.478,6.489-6.478,17.038,0,23.539
		l41.099,41.086C1021.822,634.574,1032.37,634.574,1038.872,628.072z"/>
	<polygon fill="#3D4451" points="940.815,652.827 925.826,667.844 934.463,676.493 949.479,661.49 1013.831,640.418 
		961.886,588.488 	"/>
	<path fill="#3D4451" d="M1198.528,157.472v145.743l50.828-50.827V160.45c0-39.785-32.264-72.036-72.047-72.036h-63.511v40.44
		c0,4.864-0.521,9.617-1.489,14.209h71.798C1192.075,143.064,1198.528,149.517,1198.528,157.472z"/>
	<path fill="#3D4451" d="M1198.528,714.439c0,7.955-6.453,14.406-14.421,14.406H704.646c-7.941,0-14.394-6.453-14.394-14.406V157.47
		c0-7.954,6.453-14.406,14.394-14.406h71.825c-0.969-4.59-1.514-9.345-1.514-14.209v-40.44h-63.511
		c-39.785,0-72.022,32.251-72.022,72.036v567.515c0,39.783,32.239,72.035,72.022,72.035h465.86
		c39.783,0,72.047-32.252,72.047-72.035V453.527l-50.828,50.828v210.084H1198.528z"/>
	<path fill="#3D4451" d="M1094.019,443.637l64.651,64.64l157.719-157.731l-64.626-64.626L1094.019,443.637z M1267.15,335.144
		c5.584,5.571,5.584,14.631,0,20.201l-76.738,76.75c-5.582,5.572-14.618,5.572-20.201,0c-5.584-5.571-5.584-14.631,0-20.203
		l76.763-76.75C1252.531,329.572,1261.591,329.572,1267.15,335.144z"/>
	<polygon fill="#3D4451" points="745.447,285.084 796.475,336.136 815.037,317.573 866.089,266.522 847.525,247.97 796.475,299.009 
		764.013,266.522 	"/>
	<polygon fill="#3D4451" points="847.525,381.392 796.475,432.431 764.013,399.944 745.447,418.508 796.475,469.559 
		815.037,450.995 866.089,399.944 	"/>
	<polygon fill="#3D4451" points="764.013,533.365 745.447,551.929 796.475,602.981 815.037,584.417 866.089,533.365 
		847.525,514.814 796.475,565.853 	"/>
</g>
</svg>
