<?xml version="1.0" encoding="utf-8"?>
<!-- Generator: Adobe Illustrator 15.0.0, SVG Export Plug-In . SVG Version: 6.00 Build 0)  -->
<!DOCTYPE svg PUBLIC "-//W3C//DTD SVG 1.1//EN" "http://www.w3.org/Graphics/SVG/1.1/DTD/svg11.dtd">
<svg version="1.1" xmlns="http://www.w3.org/2000/svg" xmlns:xlink="http://www.w3.org/1999/xlink" x="0px" y="0px" width="286px"
	 height="66px" viewBox="0 0 286 66" enable-background="new 0 0 286 66" xml:space="preserve">
<g id="バック">
	<rect fill="#1C2C65" width="286" height="66"/>
</g>
<g id="文字">
	<g>
		<g>
			<g>
				<path fill="#BBDBF3" d="M48.076,30.83c0,0,5.765,6.367,5.813,12.181c0,0,1.354,10.177-6.217,10.177c0,0,7.928,2.105,10.18-7.069
					c0,0,0.252-1.103,0.401-7.117V30.83H48.076z"/>
				<path fill="#FFFFFF" d="M49.091,30.83c0,0,5.762,6.367,5.813,12.181c0,0,1.354,10.177-6.217,10.177
					c0,0,7.925,2.105,10.179-7.069c0,0,0.256-1.103,0.402-7.117V30.83H49.091z"/>
				<circle fill="#FFFFFF" cx="55.847" cy="25.963" r="2.807"/>
			</g>
			<path fill="#BBDBF3" d="M45.179,12.605c0,0-4.026,19.814-4.082,26.457c0,0-1.404,11.627,6.461,11.627
				c0,0-8.287,2.406-10.633-8.076c0,0-0.255-1.26-0.417-8.133V12.605H45.179z"/>
			<path fill="#FFFFFF" d="M44.165,12.605c0,0-4.03,19.814-4.08,26.457c0,0-1.406,11.627,6.459,11.627c0,0-8.285,2.406-10.63-8.076
				c0,0-0.261-1.26-0.417-8.133V12.605H44.165z"/>
			<rect x="25.115" y="12.605" fill="#FFFFFF" width="31.808" height="2.815"/>
		</g>
		<g>
			<path fill="#FFFFFF" d="M81.654,29.044v11.204h-4.836V29.044h-4.945v-3.851h14.704v3.851H81.654z"/>
			<path fill="#FFFFFF" d="M102.726,26.922c1.415,1.327,2.122,3.26,2.122,5.798s-0.707,4.471-2.122,5.798
				c-1.415,1.328-3.421,1.992-6.018,1.992s-4.599-0.66-6.006-1.981c-1.408-1.319-2.112-3.257-2.112-5.809
				c0-2.553,0.704-4.49,2.112-5.81c1.407-1.32,3.409-1.98,6.006-1.98S101.311,25.594,102.726,26.922z M94.345,29.482
				c-0.54,0.627-0.81,1.473-0.81,2.539v1.399c0,1.065,0.27,1.912,0.81,2.539c0.54,0.627,1.327,0.941,2.363,0.941
				s1.827-0.314,2.375-0.941c0.547-0.627,0.82-1.473,0.82-2.539v-1.399c0-1.065-0.273-1.912-0.82-2.539
				c-0.548-0.627-1.339-0.941-2.375-0.941S94.885,28.854,94.345,29.482z"/>
			<path fill="#FFFFFF" d="M120.821,40.248v-5.427c0-0.671,0.025-1.36,0.077-2.067c0.05-0.708,0.105-1.303,0.163-1.784
				c0.059-0.481,0.095-0.788,0.11-0.919h-0.088l-2.779,10.197h-3.785l-2.801-10.175h-0.088c0.015,0.131,0.055,0.434,0.12,0.908
				c0.065,0.474,0.128,1.065,0.187,1.772c0.058,0.707,0.087,1.396,0.087,2.067v5.427h-4.441V25.193h6.827l2.275,8.687h0.088
				l2.254-8.687h6.586v15.055H120.821z"/>
			<path fill="#FFFFFF" d="M129.202,40.248V25.193h4.836v15.055H129.202z"/>
			<path fill="#FFFFFF" d="M144.278,36.637h7.155v3.61h-14.595v-1.554l6.979-9.891h-6.455v-3.61h13.896v1.554L144.278,36.637z"/>
			<path fill="#FFFFFF" d="M164.256,40.248l-0.635-2.123h-5.273l-0.635,2.123h-4.945l5.493-15.055h5.623l5.492,15.055H164.256z
				 M159.354,34.755h3.26l-1.575-5.361h-0.087L159.354,34.755z"/>
			<path fill="#FFFFFF" d="M182.942,40.248l-1.947-9.168h-0.088l-1.947,9.168h-5.317l-3.522-15.055h5.033l1.728,8.534h0.088
				l1.707-8.534h4.77l1.816,8.534h0.088l1.619-8.534h4.813l-3.522,15.055H182.942z"/>
			<path fill="#FFFFFF" d="M204.036,40.248l-0.634-2.123h-5.274l-0.634,2.123h-4.945l5.492-15.055h5.623l5.492,15.055H204.036z
				 M199.135,34.755h3.261l-1.576-5.361h-0.087L199.135,34.755z"/>
			<path fill="#FFFFFF" d="M228.883,39.175c-1.072,0.89-2.614,1.335-4.628,1.335s-3.556-0.446-4.628-1.335
				c-1.072-0.889-1.608-2.275-1.608-4.157v-0.197h4.53v0.175c0,0.686,0.127,1.174,0.383,1.466c0.255,0.292,0.646,0.438,1.17,0.438
				c0.525,0,0.915-0.146,1.171-0.438c0.255-0.292,0.383-0.78,0.383-1.466v-9.803h4.836v9.825
				C230.491,36.9,229.955,38.286,228.883,39.175z"/>
			<path fill="#FFFFFF" d="M242.241,40.248l-0.284-1.75c-0.452,0.627-1.047,1.12-1.783,1.477c-0.737,0.357-1.514,0.537-2.331,0.537
				c-1.342,0-2.348-0.372-3.02-1.117c-0.671-0.744-1.006-1.816-1.006-3.216v-7.483h4.354v6.958c0,0.497,0.127,0.895,0.383,1.192
				c0.255,0.299,0.616,0.449,1.083,0.449c0.539,0,0.977-0.175,1.313-0.524c0.335-0.351,0.504-0.781,0.504-1.292v-6.782h4.354v11.553
				H242.241z"/>
			<path fill="#FFFFFF" d="M259.878,29.547c0.671,0.745,1.007,1.816,1.007,3.217v7.483h-4.354v-6.959
				c0-0.496-0.128-0.893-0.383-1.192c-0.256-0.298-0.617-0.449-1.084-0.449c-0.539,0-0.977,0.175-1.313,0.526
				c-0.336,0.35-0.503,0.78-0.503,1.291v6.784h-4.354V28.694h3.566l0.284,1.75c0.452-0.612,1.047-1.102,1.784-1.466
				c0.735-0.364,1.513-0.547,2.33-0.547C258.2,28.432,259.206,28.803,259.878,29.547z"/>
		</g>
	</g>
</g>
</svg>
