<?xml version="1.0" encoding="utf-8"?>
<!-- Generator: Adobe Illustrator 15.0.0, SVG Export Plug-In . SVG Version: 6.00 Build 0)  -->
<!DOCTYPE svg PUBLIC "-//W3C//DTD SVG 1.1//EN" "http://www.w3.org/Graphics/SVG/1.1/DTD/svg11.dtd">
<svg version="1.1" id="レイヤー_1" xmlns="http://www.w3.org/2000/svg" xmlns:xlink="http://www.w3.org/1999/xlink" x="0px"
	 y="0px" width="80.389px" height="293.273px" viewBox="0 0 80.389 293.273" enable-background="new 0 0 80.389 293.273"
	 xml:space="preserve">
<g id="レイヤー_1_1_">
</g>
<g>
	<path fill="#D2DDF0" stroke="#231815" stroke-width="0.6464" stroke-miterlimit="10" d="M139.753,142.414
		c0,0,10.14,16.213,10.29,17.883c0,0,5.438-10.773,6.085-11.524c0,0,4.518-9.808,4.683-10.346c0.165-0.536,2.964,81.66,2.964,81.66
		s-9.688,2.803-11.523,1.938c0,0-1.726-2.479-1.726-5.815l-1.984-0.216c0,0-2.106,6.472-2.538,6.196c0,0-9.587-1.676-9.909-3.185
		L139.753,142.414z"/>
	<path fill="none" stroke="#231815" stroke-width="0.6464" stroke-miterlimit="10" d="M147.617,165.25c0,0,2.424-4.954,2.699-5.502"
		/>
	<polygon fill="#FFFFFF" stroke="#231815" stroke-width="0.6464" stroke-miterlimit="10" points="137.991,115.698 156.344,114.297 
		164.179,113.759 166.579,120.455 160.006,154.694 151.279,163.527 143.63,159.748 136.091,131.104 	"/>
	<path fill="#1A237E" stroke="#231815" stroke-width="0.6464" stroke-miterlimit="10" d="M141.152,122.08
		c0,0-2.855-2.69-3.045-3.203l-0.348,3.203c0,0,2.587,2.504,3.395,3.069C141.96,125.716,141.152,122.08,141.152,122.08z"/>
	<path fill="#1A237E" stroke="#231815" stroke-width="0.6464" stroke-miterlimit="10" d="M164.179,115.698
		c0,0-2.667,5.661-5.092,6.346v3.166c0,0,4.767-3.553,5.092-4.754V115.698z"/>
	<path fill="#CCCCCC" stroke="#231815" stroke-width="0.6464" stroke-miterlimit="10" d="M148.479,131.423
		c0,0-3.887,11.96-3.559,21.116l5.215,10.987l4.917-10.661c0,0-1.832-20.688-3.018-21.87
		C150.849,129.81,148.479,131.423,148.479,131.423z"/>
	<path fill="none" stroke="#231815" stroke-width="0.6464" stroke-miterlimit="10" d="M146.431,191.106c0,0,2.384,9.912,2.106,11.42
		"/>
	<path fill="#231815" stroke="#000000" stroke-width="0.6464" stroke-miterlimit="10" d="M123.462,307.021
		c0,0-3.313,5.253-3.396,6.626c0,0-1.779,3.231-2.261,3.878c0,0-4.362,4.283-4.688,5.575c0,0-1.294,0.888-1.294,2.102
		c0,0-0.969,1.938,1.294,2.826c0,0,4.525,1.616,9.209,1.616c0,0,3.716,0.729,7.192-1.453c0,0,4.28-1.778,4.847-1.694
		c0.566,0.081,4.415-3.688,5.494-5.896c0,0,2.479,0.32,3.019-0.059c0,0,2.153-2.033,2.691-2.039c0,0,2.208-1.084,2.317-1.567
		c0,0,0.857-5.118,0.375-5.494c0,0,1.642-2.906,0.146-5.276L123.462,307.021z"/>
	<path fill="none" stroke="#000000" stroke-width="0.6464" stroke-miterlimit="10" d="M148.266,311.439c0,0-3.984,3.985-4.578,4.095
		c0,0-4.903,4.198-5.009,4.634c-0.106,0.434-2.37,1.829-3.021,3.177c0,0-1.611,1.729-3.283,2.426c0,0-2.53,1.774-8.078,1.994
		c0,0-8.833-0.54-10.396-1.728c0,0-2.166-0.264-1.354-2.421"/>
	
		<line fill="none" stroke="#000000" stroke-width="0.6464" stroke-miterlimit="10" x1="142.664" y1="320.632" x2="142.344" y2="316.698"/>
	<path fill="none" stroke="#000000" stroke-width="0.6464" stroke-miterlimit="10" d="M139.863,320.599c0,0,2.559-2.93,2.583-2.639"
		/>
	<path fill="#231815" stroke="#000000" stroke-width="0.6464" stroke-miterlimit="10" d="M151.732,306.24
		c0,0-0.813,5.289-0.378,11.153c0,0,4.2,4.413,5.763,4.572c0,0,2.154-0.053,2.533-0.322c0,0,3.229,2.746,3.715,3.502
		c0,0,2.314,2.962,6.734,3.875c0,0,4.848,1.619,10.607,0.541c0,0,7.271-0.754,4.852-4.631c0,0-0.809-3.124-1.728-3.449
		c0,0-2.586-3.443-2.637-3.981c0,0-2.319-2.803-2.588-4.148c0,0-2.314-4.359-2.268-5.332L151.732,306.24z"/>
	<path fill="none" stroke="#000000" stroke-width="0.6464" stroke-miterlimit="10" d="M151.248,312.274c0,0-1.564,2.479,6.46,6.41
		c0,0,6.896,4.312,7.164,4.953c0,0,2.908,3.556,9.268,4.256c0,0,6.192,0.862,8.728-0.591c0,0,2.583-1.021,2.691-2.37"/>
	<path fill="none" stroke="#000000" stroke-width="0.6464" stroke-miterlimit="10" d="M157.115,321.968c0,0,0.703-2.748,0.594-3.283
		"/>
	<path fill="none" stroke="#000000" stroke-width="0.6464" stroke-miterlimit="10" d="M159.778,321.755c0,0-1.896-1.417-2.359-1.544
		"/>
	<path fill="#2D3C6D" stroke="#231815" stroke-width="0.6464" stroke-miterlimit="10" d="M180.576,222.198l-16.16-13.291
		l-32.316,4.001l-13.248,9.291c0,0,1.781,7.097,2.266,16.471c0,0,0.298,4.521,0.354,5.25c0,0,0.252,8.482,0.686,12.361
		c0,0,0.455,14.759,0.563,22.839c0,0,0.46,13.898,0.024,15.838c0,0-0.008,7.973-0.765,12.819c0,0,9.587,5.063,12.819,4.521
		c0,0,5.386,0.437,10.448-3.553c0,0,4.524-2.154,4.74-3.018"/>
	<path fill="#2D3C6D" stroke="#231815" stroke-width="0.6464" stroke-miterlimit="10" d="M150.093,219.688
		c0,0,0.539,9.277,0.512,21.789c-0.006,2.578-0.301,5.294-0.317,8.094c-0.144,24.881-0.356,56.428-0.228,57.531
		c0,0,6.569,2.801,11.415,3.018c0,0,10.666,1.185,15.407-1.617c0,0-0.219-6.572-0.757-7.001c-0.537-0.435-0.404-13.252-1.155-16.271
		c0,0,2.556-63.065,2.556-65.541"/>
	<path fill="none" stroke="#231815" stroke-width="0.6464" stroke-miterlimit="10" d="M148.539,215.24"/>
	<path fill="#D2DDF0" stroke="#231815" stroke-width="0.6464" stroke-miterlimit="10" d="M151.385,166.318
		c0,0.782-0.507,1.412-1.141,1.412c-0.625,0-1.139-0.63-1.139-1.412c0-0.784,0.515-1.415,1.139-1.415
		C150.878,164.903,151.385,165.533,151.385,166.318z"/>
	<path fill="#D2DDF0" stroke="#231815" stroke-width="0.6464" stroke-miterlimit="10" d="M151.385,176.344
		c0,0.779-0.507,1.412-1.141,1.412c-0.625,0-1.139-0.633-1.139-1.412c0-0.78,0.515-1.413,1.139-1.413
		C150.878,174.93,151.385,175.563,151.385,176.344z"/>
	<path fill="#D2DDF0" stroke="#231815" stroke-width="0.6464" stroke-miterlimit="10" d="M151.385,185.644
		c0,0.779-0.507,1.412-1.141,1.412c-0.625,0-1.139-0.633-1.139-1.412c0-0.782,0.515-1.415,1.139-1.415
		C150.878,184.229,151.385,184.861,151.385,185.644z"/>
	<path fill="#D2DDF0" stroke="#231815" stroke-width="0.6464" stroke-miterlimit="10" d="M151.385,194.006
		c0,0.782-0.507,1.412-1.141,1.412c-0.625,0-1.139-0.63-1.139-1.412s0.515-1.417,1.139-1.417
		C150.878,192.589,151.385,193.222,151.385,194.006z"/>
	<path fill="#CCCCCC" stroke="#231815" stroke-width="0.6464" stroke-miterlimit="10" d="M146.714,126.042
		c0,0,0.754,4.523,1.294,6.032c0,0,2.908,1.185,4.738,0c0,0,1.165-3.163,1.186-6.032H146.714z"/>
	<g>
		<path fill="#2D3C6D" stroke="#231815" stroke-width="0.6464" stroke-miterlimit="10" d="M145.387,212.909
			c0,0-6.57,14.825-30.163,12.349c0,0,3.094-12.465,3.848-13.573c0,0,2.165-22.39,1.75-24.628l5,4.638l9.87,4.37L145.387,212.909z"
			/>
		<path fill="#B4B4B5" stroke="#231815" stroke-width="0.6464" stroke-miterlimit="10" d="M139.272,211.685
			c0,0,2.021-0.003,2.451-1.079l-0.97-1.696l-2.1,0.622L139.272,211.685z"/>
		<path fill="#F5E6BE" stroke="#231815" stroke-width="0.6464" stroke-miterlimit="10" d="M139.786,209.502
			c0,0,2.182,2.745,2.745,3.07c0,0,4.607,1.697,4.771,2.668c0,0-1.618,0.81-1.213,1.696c0,0,1.616,1.887,4.244,0.658l1.606-1.311
			l2.67-9.371l1.819-2.265l-2.212-2.988l-2.277,0.646l-2.676-2.505l-7.62,5.654L139.786,209.502z"/>
		<path fill="none" stroke="#231815" stroke-width="0.6464" stroke-miterlimit="10" d="M147.904,216.49c0,0-0.137-0.673-0.604-1.249
			"/>
		<path fill="#FFFFFF" stroke="#231815" stroke-width="0.6464" stroke-miterlimit="10" d="M136.555,209.905
			c0,0,1.643,1.782,2.718,1.779c0,0,4.959-7.99,11.826-11.955l-2.749-2.105l-10.02,7.758L136.555,209.905z"/>
		<path fill="#2D3C6D" stroke="#231815" stroke-width="0.6464" stroke-miterlimit="10" d="M143.556,113.759l-3.771,1.344
			c0,0-1.506,2.318-2.046,2.751c0,0-5.818,3.211-8.296,4.189c0,0-9.911,4.429-11.96,5.185c0,0-4.307,3.769-5.061,5.814
			c0,0-1.4,4.849-1.4,7.755c0,0,0.105,17.563,0.538,22.303c0,0,1.079,12.869,2.37,14.648c0,0,13.735,26.34,22.944,33.126
			c0,0,6.142-10.288,13.144-12.661l-0.754-1.291c0,0,3.02-11.636,1.833-20.469c0,0-0.541-8.833-0.646-11.204
			c0,0-4.737-18.097-4.632-19.391c0,0-4.49-16.826-4.202-21.328c0,0-1.614-8.411,1.938-9.431L143.556,113.759L143.556,113.759z"/>
		<path fill="none" stroke="#231815" stroke-width="0.6464" stroke-miterlimit="10" d="M141.24,124.321c0,0-2.049,5.677-2.313,5.677
			c0,0-7.105,3.555-7.729,4.04c0,0,12.466,30.896,19.254,38.758"/>
		<path fill="none" stroke="#231815" stroke-width="0.6464" stroke-miterlimit="10" d="M116.409,128.706
			c0,0,8.511,6.708,9.373,13.604c0,0,2.478,6.789,2.907,7.972c0,0,4.308,20.253,4.416,22.517"/>
		<path fill="none" stroke="#231815" stroke-width="0.6464" stroke-miterlimit="10" d="M131.198,171.61c0,0,4.496,2.371,3.635,6.786
			c0,0,12.629,15.863,14.435,18.525"/>
		<path fill="none" stroke="#231815" stroke-width="0.6464" stroke-miterlimit="10" d="M137.332,118.076
			c0,0-5.593,7.155-6.134,9.579c0,0,4.95,3.062,5.761,2.901"/>
	</g>
	<path fill="#F4E7C7" stroke="#231815" stroke-width="0.6464" stroke-miterlimit="10" d="M139.753,112.68v3.343
		c0,0,4.74,7.902,10.342,9.735c0,0,9.912-6.179,12.713-11.351v-2.695L139.753,112.68z"/>
	<path fill="#FFFFFF" stroke="#231815" stroke-width="0.6464" stroke-miterlimit="10" d="M140.937,117.569
		c0,0-1.292,10.558-1.186,11.74c0,0,5.926-4.306,10.341-3.552L140.937,117.569z"/>
	<path fill="#FFFFFF" stroke="#231815" stroke-width="0.6464" stroke-miterlimit="10" d="M159.62,117.569
		c0,0,1.291,10.558,1.186,11.74c0,0-5.926-4.306-10.342-3.552L159.62,117.569z"/>
	<g>
		<path fill="#2D3C6D" stroke="#231815" stroke-width="0.6464" stroke-miterlimit="10" d="M155.862,215.865
			c0,0-0.105,3.036,3.66,5.729c0,0,9.162,4.956,23.377,3.342c0,0-0.646-7.301-1.396-8.443c0,0-0.97-5.83-1.188-8.604l-1.079-13.883
			l-4.413,3.622L155.862,215.865z"/>
		<path fill="#C8C9CA" stroke="#231815" stroke-width="0.6464" stroke-miterlimit="10" d="M165.342,210.875
			c0,0-2.369,0.159-2.424-0.971l0.971-1.294l1.775-1.235l0.538,1.13L165.342,210.875z"/>
		<path fill="#FFFFFF" stroke="#231815" stroke-width="0.6464" stroke-miterlimit="10" d="M165.342,210.875
			c0,0-3.634-11.44-11.392-15.457l1.376-1.412l6.057,2.813l7.303,10.342C168.684,207.157,166.473,210.631,165.342,210.875z"/>
		<path fill="#2D3C6D" stroke="#231815" stroke-width="0.6464" stroke-miterlimit="10" d="M157.384,112.465
			c0,0,3.972,0.758,3.972,1.294c0,0,1.294,2.263,1.728,3.017c0,0,19.065,7.542,20.791,9.807c0,0,5.87,8.351,6.675,24.021
			c0,0,0.487,21.652,0,25.854c0,0-4.197,13.576-11.31,20.361c0,0-10.021,11.957-11.147,13.09c0,0-5.763-12.442-13.627-15.138v3.123
			l-4.523,0.541c0,0-4.146-19.717-1.563-29.57c0,0,4.146-12.12,4.146-14.274c0,0,3.045-15.135,3.045-16.754
			c0,0,2.021-12.081,2.584-12.624c0,0,1.218-8.845,1.136-10.106c0,0-0.893-1.423-1.294-1.344L157.384,112.465z"/>
		<path fill="none" stroke="#231815" stroke-width="0.6464" stroke-miterlimit="10" d="M163.081,116.773c0,0,4.36,8.542,4.928,9.269
			c0,0-7.758,2.746-8.485,2.664"/>
		<path fill="#2D3C6D" stroke="#231815" stroke-width="0.6464" stroke-miterlimit="10" d="M161.209,147.421
			c0,0,8.439-0.646,9.306,0.002c0,0,0.591,2.208-0.322,2.908c0,0-8.403-0.7-10.073,0l0.703-1.992L161.209,147.421z"/>
		<path fill="none" stroke="#231815" stroke-width="0.6464" stroke-miterlimit="10" d="M158.15,125.209l1.778,5.35l7.354,1.517
			c0,0-9.155,24.722-13.47,30.243c0,0-4.521,7.565-4.415,11.771"/>
		<path fill="none" stroke="#231815" stroke-width="0.6464" stroke-miterlimit="10" d="M154.463,194.769
			c1.354-3.284,5.602-7.002,5.602-7.002c1.187-0.646,7.219-8.08,7.219-8.08l0.646-3.445l4.201-9.807c-1.727-5.169,0-19.392,0-19.392
			c1.83-12.386,10.771-20.466,10.771-20.466"/>
		<path fill="#F5E6BE" stroke="#231815" stroke-width="0.6464" stroke-miterlimit="10" d="M150.88,196.816
			c0,0-5.401,2.37-6.023,3.394c0,0-2.46,2.908-3.349,2.908c0,0-2.829,1.213,0,2.345c0,0,2.256,0.403,3.349-0.401
			c0,0,2.311-2.266,2.67-1.457c0,0-0.732,1.735-1.961,1.961c0,0-1.877,1.189-1.877,1.677c0,0-0.969,1.615-2.099,1.615
			c0,0-3.07,1.133-3.232,1.535c0,0-1.777,2.021,1.134,2.262h0.729c0,0,0.484,3.073,3.796,2.587c0,0-1.373,2.988,3.878,2.02
			l0.969-0.32c0,0,0.081,1.029,3.96,0.517c0,0,5.896-1.565,7.188-2.855c0,0,4.363-5.336,5.012-6.225l-5.497-10.02l-3.541-2.936
			L150.88,196.816z"/>
		<path fill="none" stroke="#231815" stroke-width="0.6464" stroke-miterlimit="10" d="M149.344,201.016
			c0,0-1.696,1.457-1.819,2.586"/>
		<path fill="none" stroke="#231815" stroke-width="0.6464" stroke-miterlimit="10" d="M151.042,207.885
			c0,0-3.287,1.535-3.908,2.347c0,0-2.393,1.855-3.886,1.855c0,0-2.311,0.563-3.031,0.563"/>
		<path fill="none" stroke="#231815" stroke-width="0.6464" stroke-miterlimit="10" d="M154.463,209.905
			c0,0-5.646,2.746-6.025,3.394c0,0-2.896,1.989-4.424,1.938"/>
		<path fill="none" stroke="#231815" stroke-width="0.6464" stroke-miterlimit="10" d="M156.939,213.217
			c0,0-3.877,1.701-4.604,2.023c0,0-2.021,1.774-3.477,1.693"/>
		<path fill="#DBDCDC" stroke="#231815" stroke-width="0.6464" stroke-miterlimit="10" d="M150.98,211.685
			c0,0,1.541,3.229,3.481,3.124c0,0,0.661-0.003,0.863-0.487c0,0-3.047-2.262-3.062-3.313
			C152.266,211.01,151.274,211.527,150.98,211.685z"/>
	</g>
	<g>
		<g>
			<path fill="#F4E7C7" stroke="#231815" stroke-width="0.6464" stroke-miterlimit="10" d="M127.813,97.928
				c0.002,1.316,0.004,2.632,0.005,3.948c-0.357,0.645-0.716,1.29-1.073,1.937c-7.213-1.094-8.831-7.7-8.831-7.693
				c-1.62-7.758,3.969-7.9,3.97-7.904C123.858,91.501,125.835,94.735,127.813,97.928z"/>
			<path fill="#3E3A39" stroke="#231815" stroke-width="0.6464" stroke-miterlimit="10" d="M178.28,101.379
				c0,0.002-0.76,4.42-0.007,5.545c0,0-1.452-1.163-1.936-2.229c-0.001-0.007,0.643,4.171-4.211,5.941
				c0.868-3.021,1.735-6.057,2.604-9.106C175.913,101.483,177.097,101.432,178.28,101.379z"/>
			<path fill="#F4E7C7" stroke="#231815" stroke-width="0.6464" stroke-miterlimit="10" d="M179.693,88.254
				c0.001,0.004,5.591,0.154,3.971,7.899c-0.001-0.005-1.619,6.592-8.833,7.679c-0.356-0.646-0.716-1.291-1.073-1.937
				c0.001-1.314,0.004-2.63,0.006-3.944C175.74,94.763,177.717,91.534,179.693,88.254z"/>
			<path fill="#F4E7C7" stroke="#231815" stroke-width="0.6464" stroke-miterlimit="10" d="M178.848,95.181
				c0.002,0.061-6.787,16.377-11.313,21.146c0,0.027-8.041,9.381-18.576,9.114c0-0.024-11.789-1.351-18.579-12.06
				c-0.001,0.046-7.791-10.593-7.798-18.241c-0.001,0.064-3.778-20.436,1.719-29.23c-0.007-0.16,12.253-20.188,25.785-18.845
				c-0.006,0.195,15.301-2.462,25.547,14.558C175.633,61.549,182.625,80.198,178.848,95.181z"/>
			<path fill="none" stroke="#717071" stroke-width="1.1476" stroke-linecap="round" stroke-miterlimit="10" d="M159.104,87.589
				c-0.001,0.016,6.843-4.239,12.602-2.444"/>
			<path fill="none" stroke="#717071" stroke-width="1.1476" stroke-linecap="round" stroke-miterlimit="10" d="M142.135,87.141
				c0,0.05-9.905-5.147-15.675-0.709"/>
			<g>
				<path fill="#3E3A39" stroke="#231815" stroke-width="0.6464" stroke-miterlimit="10" d="M159.343,47.044
					c-0.003-0.017,3.8-0.824,10.925,1.45c0.009,0.073,10.77,2.947,13.218,8.106c0.001-0.008-5.676-4.175-10.099-3.37
					c-0.002,0.023,5.281,0.304,11.7,7.791c0.002-0.037,7.266,10.329,5.342,18.385c-0.001,0.008,0.219-4.683-5.027-10.257
					c0-0.01,3.318,5.103,2.351,10.572c0.001,0.021-2.47,8.556,0.746,10.508c0,0.002-3.43-1.093-4.61-3.847
					c0-0.003,0.855,4.169-0.324,5.634c-0.001-0.002-1.183-1.81-2.58-1.182c0,0-1.299,7.149-5.28,8.675
					c0,0.011,2.375-5.751,1.628-13.864c-0.001,0.001,0.217,0.819-2.795-2.509c0.003,0.022-9.805-2.854-15.207-11.686
					c0.001-0.001,3.507,10.623,4.637,11.35c0.003,0.018-8.421-4.247-11.912-9.197c0.001,0,0.082,4.703,1.378,5.844
					c0.001,0.023-7.141-6.652-7.469-12.206c-0.001-0.003-3.401,7.662,0.006,12.403c0,0.023-7.379-3.228-8.767-14.741
					c-0.002,0.006-5.826,6.644-4.442,11.845c0,0.007-2.511-3.962-2.272-7.677c-0.001-0.013-4.759,8.634-3.371,17.647
					c-0.001,0.01-3.883-3.075-4.371-8.326c0.001-0.022-2.649,10.193,0.421,15.671c-0.001,0.014-4.277-3.663-5.006-6.125
					c-0.001,0-1.983,0.811-1.877,3.057c-0.01,0.173-8.685-15.509-0.021-29.132c-0.001,0.003-3.737,2.081-4.91,4.585
					c0.023-0.202,4.098-16.403,21.887-20.16c0.001-0.006,3.455-0.69,8.113-0.85c0.001-0.013-0.98-3.185-5.523-3.153
					c-0.001-0.021,4.647-2.801,11.157,3.066C146.98,45.365,153.603,39.485,159.343,47.044z"/>
				<path fill="none" stroke="#231815" stroke-width="0.6464" stroke-miterlimit="10" d="M180.768,86.934
					c0-0.001,0.432,2.953,0.215,3.902"/>
				<path fill="none" stroke="#231815" stroke-width="0.6464" stroke-miterlimit="10" d="M154.167,47.538
					c-0.001-0.03,2.44,5.248,9.824,4.34c0.002,0.012-4.433-2.861-4.649-4.833"/>
				<path fill="none" stroke="#231815" stroke-width="0.6464" stroke-miterlimit="10" d="M134.265,50.965
					c-0.001-0.004-4.124,5.129-0.719,8.13c-0.002,0.029-5.75-2.236-3.087-8.963"/>
				<path fill="none" stroke="#231815" stroke-width="0.6464" stroke-miterlimit="10" d="M170.359,60.778
					c0.002,0.026,5.502-0.438,7.641,7.15c-0.001-0.009,1.382,12.826,5.676,14.876c0.004,0.022-7.627-0.521-10.32-5.412"/>
				<path fill="none" stroke="#231815" stroke-width="0.6464" stroke-miterlimit="10" d="M167.867,68.083
					c0.002,0.005,4.742,5.535,6.131,11.457c0,0-0.07,3.063,1.314,4.44"/>
				<path fill="none" stroke="#231815" stroke-width="0.6464" stroke-miterlimit="10" d="M117.456,81.865
					c0-0.01-0.664,5.439,2.049,8.409"/>
			</g>
			<path fill="none" stroke="#231815" stroke-width="0.6464" stroke-miterlimit="10" d="M138.831,112.361
				c0.001,0,10.363,4.858,23.626,0.01"/>
			<path fill="none" stroke="#231815" stroke-width="0.6464" stroke-miterlimit="10" d="M150.49,101.07
				c-0.165,1.434-0.329,2.866-0.494,4.3c0.433,0.307,0.863,0.613,1.294,0.92"/>
			
				<path fill="none" stroke="#231815" stroke-width="1.7264" stroke-linecap="round" stroke-linejoin="round" stroke-miterlimit="10" d="
				M133.913,96.122c1.893,2.204,5.886,2.182,7.564-0.017"/>
			
				<path fill="none" stroke="#231815" stroke-width="1.7264" stroke-linecap="round" stroke-linejoin="round" stroke-miterlimit="10" d="
				M159.776,96.346c1.887,2.086,5.875,1.884,7.561-0.419"/>
		</g>
	</g>
	<circle fill="#231815" cx="150.526" cy="177.83" r="1.488"/>
	<circle fill="#231815" cx="151.093" cy="188.017" r="1.488"/>
</g>
</svg>
