<?xml version="1.0" encoding="utf-8"?>
<!-- Generator: Adobe Illustrator 15.0.0, SVG Export Plug-In . SVG Version: 6.00 Build 0)  -->
<!DOCTYPE svg PUBLIC "-//W3C//DTD SVG 1.1//EN" "http://www.w3.org/Graphics/SVG/1.1/DTD/svg11.dtd">
<svg version="1.1" xmlns="http://www.w3.org/2000/svg" xmlns:xlink="http://www.w3.org/1999/xlink" x="0px" y="0px"
	 width="87.472px" height="300.646px" viewBox="84.264 30.177 87.472 300.646"
	 enable-background="new 84.264 30.177 87.472 300.646" xml:space="preserve">
<g id="レイヤー_1">
</g>
<g id="イラスト">
	<g>
		<polygon fill="#FFFFFF" stroke="#231815" stroke-width="0.6464" stroke-miterlimit="10" points="114.389,115.698 132.742,114.297 
			140.578,113.759 142.977,120.455 136.404,154.694 127.677,163.527 120.028,159.748 112.489,131.104 		"/>
		<path fill="#A3C2CF" stroke="#231815" stroke-width="0.6464" stroke-miterlimit="10" d="M117.551,122.08
			c0,0-2.857-2.692-3.045-3.203l-0.347,3.203c0,0,2.586,2.504,3.393,3.07C118.358,125.716,117.551,122.08,117.551,122.08z"/>
		<path fill="#A3C2CF" stroke="#231815" stroke-width="0.6464" stroke-miterlimit="10" d="M140.578,115.698
			c0,0-2.667,5.662-5.091,6.346v3.166c0,0,4.766-3.553,5.091-4.754V115.698z"/>
		<path fill="#A3C2CF" stroke="#231815" stroke-width="0.6464" stroke-miterlimit="10" d="M124.878,131.423
			c0,0-3.886,11.96-3.558,21.116l5.542,9.913l4.589-9.587c0,0-1.832-20.687-3.017-21.87
			C127.248,129.81,124.878,131.423,124.878,131.423z"/>
		<path fill="#D2DDF0" stroke="#231815" stroke-width="0.6464" stroke-miterlimit="10" d="M116.151,142.414
			c0,0,10.139,16.213,10.29,17.883c0,0,5.438-10.775,6.085-11.526c0,0,4.517-9.806,4.682-10.344
			c0.165-0.538,2.964,81.66,2.964,81.66s-9.69,2.801-11.525,1.938c0,0-1.724-2.477-1.724-5.816l-1.986-0.216
			c0,0-2.107,6.472-2.538,6.197c0,0-9.587-1.676-9.91-3.183L116.151,142.414z"/>
		<path fill="none" stroke="#231815" stroke-width="0.6464" stroke-miterlimit="10" d="M122.83,191.106c0,0,2.384,9.912,2.107,11.42
			"/>
		<path fill="#797C86" stroke="#231815" stroke-width="0.6464" stroke-miterlimit="10" d="M97.595,307.021
			c0,0-3.314,5.253-3.396,6.626c0,0-1.779,3.233-2.261,3.878c0,0-4.362,4.283-4.685,5.575c0,0-1.294,0.888-1.294,2.101
			c0,0-0.969,1.939,1.294,2.827c0,0,4.525,1.616,9.209,1.616c0,0,3.715,0.729,7.192-1.453c0,0,4.281-1.779,4.847-1.695
			c0.566,0.081,4.415-3.689,5.494-5.897c0,0,2.479,0.322,3.018-0.057c0,0,2.154-2.033,2.692-2.039c0,0,2.208-1.084,2.317-1.569
			c0,0,0.86-5.118,0.375-5.494c0,0,1.642-2.907,0.148-5.277L97.595,307.021z"/>
		<path fill="none" stroke="#231815" stroke-width="0.6464" stroke-miterlimit="10" d="M122.398,311.439
			c0,0-3.984,3.987-4.578,4.094c0,0-4.903,4.199-5.009,4.634c-0.106,0.432-2.37,1.829-3.018,3.177c0,0-1.613,1.727-3.283,2.424
			c0,0-2.533,1.776-8.08,1.994c0,0-8.833-0.54-10.397-1.726c0,0-2.166-0.263-1.353-2.421"/>
		
			<line fill="none" stroke="#231815" stroke-width="0.6464" stroke-miterlimit="10" x1="116.798" y1="320.632" x2="116.476" y2="316.698"/>
		<path fill="none" stroke="#231815" stroke-width="0.6464" stroke-miterlimit="10" d="M113.996,320.599
			c0,0,2.558-2.928,2.583-2.637"/>
		<path fill="#797C86" stroke="#231815" stroke-width="0.6464" stroke-miterlimit="10" d="M133.227,306.806
			c0,0-0.81,5.29-0.378,11.156c0,0,4.202,4.413,5.763,4.572c0,0,2.154-0.053,2.533-0.322c0,0,3.23,2.746,3.715,3.502
			c0,0,2.316,2.962,6.735,3.875c0,0,4.847,1.619,10.609,0.541c0,0,7.271-0.754,4.85-4.631c0,0-0.807-3.124-1.726-3.449
			c0,0-2.586-3.446-2.637-3.984c0,0-2.319-2.802-2.588-4.148c0,0-2.314-4.362-2.265-5.332L133.227,306.806z"/>
		<path fill="none" stroke="#231815" stroke-width="0.6464" stroke-miterlimit="10" d="M132.745,312.841c0,0-1.566,2.477,6.46,6.41
			c0,0,6.896,4.309,7.164,4.953c0,0,2.908,3.556,9.266,4.256c0,0,6.194,0.862,8.727-0.591c0,0,2.583-1.023,2.692-2.37"/>
		<path fill="none" stroke="#231815" stroke-width="0.6464" stroke-miterlimit="10" d="M138.611,322.534
			c0,0,0.703-2.748,0.594-3.283"/>
		<path fill="none" stroke="#231815" stroke-width="0.6464" stroke-miterlimit="10" d="M141.273,322.321
			c0,0-1.896-1.417-2.359-1.544"/>
		<path fill="#F9F9F5" stroke="#231815" stroke-width="0.6464" stroke-miterlimit="10" d="M95.25,222.199c0,0-0.485,7.097,0,16.471
			c0,0-0.269,4.521-0.213,5.25c0,0,0.535,8.483,0.969,12.361c0,0,2.154,14.759,2.261,22.839c0,0-0.106,13.899-0.541,15.838
			c0,0-0.857,7.971-1.614,12.82c0,0,9.587,5.063,12.82,4.521c0,0,5.385,0.435,10.45-3.553c0,0,4.524-2.154,4.74-3.017
			c0,0-1.401-15.403-1.401-17.021c0,0-0.969-16.376,0-25.209c0,0,1.83-30.485,2.045-32.104l1.563,0.403
			c0,0,1.992,17.051,2.424,20.713c0,0,2.261,18.527,1.938,20.791c0,0,1.078,20.362,1.507,22.086c0,0-0.859,10.45-0.644,12.282
			c0,0,6.572,2.799,11.416,3.015c0,0,10.666,1.185,15.409-1.617c0,0-0.219-6.572-0.757-7.001c-0.537-0.432-0.972-13.252-1.723-16.27
			c0,0-1.294-18.099-1.294-20.575c0,0,1.563-38.971,2.37-43.024l-16.16-13.291l-32.317,4.001L95.25,222.199z"/>
		<path fill="#F9F9F5" stroke="#231815" stroke-width="0.6464" stroke-miterlimit="10" d="M118.95,212.909
			c0,0-6.57,14.826-30.163,12.349c0,0,1.938-15.021,2.692-16.129c0,0,2.124-8.629,1.709-10.867l2.6-1.445l13.467-0.754
			L118.95,212.909z"/>
		<path fill="#F9F9F5" stroke="#231815" stroke-width="0.6464" stroke-miterlimit="10" d="M160.966,194.769
			c0,0-0.106,3.986-0.322,4.093c-0.216,0.109-3.286,0.432-3.664,0L160.966,194.769z"/>
		<path fill="#F9F9F5" stroke="#231815" stroke-width="0.6464" stroke-miterlimit="10" d="M136.511,215.864
			c0,0-0.106,3.037,3.661,5.729c0,0,9.162,4.956,23.377,3.34c0,0-0.645-7.299-1.397-8.444c0,0-0.97-5.83-1.186-8.604l-0.862-9.195
			l-4.632-1.067L136.511,215.864z"/>
		<path fill="#B4B4B5" stroke="#231815" stroke-width="0.6464" stroke-miterlimit="10" d="M112.836,211.685
			c0,0,2.022-0.003,2.451-1.079l-0.969-1.697l-2.099,0.622L112.836,211.685z"/>
		<path fill="none" stroke="#231815" stroke-width="0.6464" stroke-miterlimit="10" d="M124.937,215.24
			c0,0,0.426,15.027-0.168,16.156"/>
		<path fill="#F5E6BE" stroke="#231815" stroke-width="0.6464" stroke-miterlimit="10" d="M113.349,209.502
			c0,0,2.182,2.745,2.746,3.07c0,0,4.608,1.698,4.771,2.668c0,0-1.619,0.81-1.213,1.697c0,0,1.616,1.886,4.244,0.658l1.608-1.309
			l2.67-9.371l1.819-2.264l-2.211-2.989l-2.278,0.647l-2.676-2.505l-7.62,5.656L113.349,209.502z"/>
		<path fill="#C8C9CA" stroke="#231815" stroke-width="0.6464" stroke-miterlimit="10" d="M145.991,210.875
			c0,0-2.37,0.159-2.424-0.97l0.97-1.294l1.776-1.236l0.538,1.13L145.991,210.875z"/>
		<path fill="none" stroke="#231815" stroke-width="0.6464" stroke-miterlimit="10" d="M124.928,229.242
			c0.501,0.373,0.922,0.502,1.266,0.463c1.496-0.171,1.645-3.48,1.645-3.48c0-1.723,0.644-5.71,0.644-5.71l0.603-4.309"/>
		<path fill="#FFFFFF" stroke="#231815" stroke-width="0.6464" stroke-miterlimit="10" d="M145.991,210.875
			c0,0-3.634-11.442-11.392-15.457l1.376-1.412l6.057,2.811l7.302,10.341C149.334,207.157,147.123,210.631,145.991,210.875z"/>
		<path fill="#F9F9F5" stroke="#231815" stroke-width="0.6464" stroke-miterlimit="10" d="M138.034,112.465
			c0,0,3.971,0.756,3.971,1.294c0,0,1.294,2.261,1.726,3.015c0,0,19.067,7.542,20.791,9.806c0,0,5.87,8.349,6.675,24.021
			c0,0,0.487,21.654,0,25.854c0,0-4.198,13.576-11.309,20.362c0,0-10.02,11.957-11.148,13.089c0,0-5.763-12.442-13.627-15.137v3.123
			l-4.524,0.541c0,0-4.147-19.715-1.563-29.571c0,0,4.146-12.12,4.146-14.274c0,0,3.045-15.135,3.045-16.754
			c0,0,2.021-12.081,2.584-12.624c0,0,1.216-8.845,1.134-10.108c0,0-0.891-1.423-1.294-1.342L138.034,112.465z"/>
		<path fill="none" stroke="#231815" stroke-width="0.6464" stroke-miterlimit="10" d="M124.015,165.25c0,0,2.424-4.954,2.701-5.502
			"/>
		<path fill="none" stroke="#231815" stroke-width="0.6464" stroke-miterlimit="10" d="M143.73,116.773c0,0,4.362,8.542,4.928,9.268
			c0,0-7.758,2.746-8.486,2.664"/>
		<path fill="#F1D8E8" stroke="#231815" stroke-width="0.6464" stroke-miterlimit="10" d="M142.806,145.143l-1.474,3.592h8.593
			l0.375-2.928C150.3,145.807,144.263,144.874,142.806,145.143z"/>
		<path fill="#FFFFFF" stroke="#231815" stroke-width="0.6464" stroke-miterlimit="10" d="M141.858,147.421
			c0,0,8.441-0.645,9.305,0.002c0,0,0.591,2.208-0.322,2.908c0,0-8.405-0.7-10.075,0l0.704-1.992L141.858,147.421z"/>
		<path fill="none" stroke="#231815" stroke-width="0.6464" stroke-miterlimit="10" d="M138.8,125.209l1.778,5.348l7.352,1.516
			c0,0-9.155,24.722-13.468,30.244c0,0-4.521,7.567-4.415,11.77"/>
		<path fill="none" stroke="#231815" stroke-width="0.6464" stroke-miterlimit="10" d="M135.112,194.769
			c1.356-3.284,5.601-7.002,5.601-7.002c1.185-0.646,7.217-8.08,7.217-8.08l0.647-3.446l4.202-9.806c-1.726-5.169,0-19.39,0-19.39
			c1.83-12.386,10.77-20.466,10.77-20.466"/>
		<path fill="#D2DDF0" stroke="#231815" stroke-width="0.6464" stroke-miterlimit="10" d="M127.783,166.318
			c0,0.782-0.507,1.412-1.141,1.412c-0.625,0-1.137-0.63-1.137-1.412c0-0.785,0.513-1.415,1.137-1.415
			C127.276,164.903,127.783,165.533,127.783,166.318z"/>
		<path fill="#D2DDF0" stroke="#231815" stroke-width="0.6464" stroke-miterlimit="10" d="M127.783,176.345
			c0,0.779-0.507,1.412-1.141,1.412c-0.625,0-1.137-0.633-1.137-1.412c0-0.782,0.513-1.415,1.137-1.415
			C127.276,174.93,127.783,175.563,127.783,176.345z"/>
		<path fill="#D2DDF0" stroke="#231815" stroke-width="0.6464" stroke-miterlimit="10" d="M127.783,185.644
			c0,0.781-0.507,1.412-1.141,1.412c-0.625,0-1.137-0.631-1.137-1.412c0-0.782,0.513-1.415,1.137-1.415
			C127.276,184.229,127.783,184.861,127.783,185.644z"/>
		<path fill="#D2DDF0" stroke="#231815" stroke-width="0.6464" stroke-miterlimit="10" d="M127.783,194.006
			c0,0.782-0.507,1.412-1.141,1.412c-0.625,0-1.137-0.63-1.137-1.412c0-0.784,0.513-1.417,1.137-1.417
			C127.276,192.589,127.783,193.222,127.783,194.006z"/>
		<path fill="none" stroke="#231815" stroke-width="0.6464" stroke-miterlimit="10" d="M121.468,216.489
			c0,0-0.137-0.672-0.603-1.249"/>
		
			<line fill="none" stroke="#231815" stroke-width="0.6464" stroke-miterlimit="10" x1="126.354" y1="231.993" x2="126.194" y2="229.705"/>
		<path fill="none" stroke="#231815" stroke-width="0.6464" stroke-miterlimit="10" d="M103.871,224.253
			c0,0-0.756,10.158-0.756,13.714c0,0,0.65,9.806,0.756,13.683c0,0,0.753,12.387,0.753,14.435c0,0,0.97,11.528,0.754,13.468
			c0,0,0.493,9.155,0.031,10.344c0,0-1.538,5.275-1.538,6.569c0,0-1.294,4.956-1.294,5.604c0,0,0.171,8.767,0.479,8.884"/>
		<path fill="none" stroke="#231815" stroke-width="0.6464" stroke-miterlimit="10" d="M146.852,223.95
			c0,0,1.616,15.311,1.078,18.544c0,0,0.863,11.204,0.863,12.817c0,0-0.538,16.913-0.97,18.64c0,0-1.294,9.371-0.972,11.741
			c0,0,3.989,8.402,3.448,13.249c0,0,3.556,5.819,3.556,8.405c0,0,0.269,3.135,0.736,3.04"/>
		<path fill="#A3C2CF" stroke="#231815" stroke-width="0.6464" stroke-miterlimit="10" d="M122.83,126.042
			c0,0,0.754,4.524,1.294,6.032c0,0,2.908,1.185,4.738,0c0,0,1.165-3.163,1.185-6.032H122.83z"/>
		<path fill="#FFFFFF" stroke="#231815" stroke-width="0.6464" stroke-miterlimit="10" d="M110.119,209.905
			c0,0,1.642,1.782,2.718,1.779c0,0,4.959-7.99,11.826-11.955l-2.749-2.106l-10.019,7.758L110.119,209.905z"/>
		<path fill="#F9F9F5" stroke="#231815" stroke-width="0.6464" stroke-miterlimit="10" d="M117.12,113.759l-3.771,1.342
			c0,0-1.505,2.32-2.045,2.751c0,0-5.819,3.211-8.295,4.191c0,0-9.912,4.427-11.96,5.183c0,0-4.306,3.768-5.06,5.816
			c0,0-1.401,4.847-1.401,7.755c0,0,0.106,17.561,0.538,22.301c0,0,1.079,12.871,2.37,14.65c0,0,13.736,26.34,22.945,33.126
			c0,0,6.141-10.288,13.143-12.661l-0.754-1.291c0,0,3.018-11.636,1.833-20.469c0,0-0.541-8.833-0.647-11.204
			c0,0-4.737-18.096-4.631-19.39c0,0-4.491-16.827-4.203-21.329c0,0-1.614-8.411,1.939-9.43V113.759z"/>
		<path fill="none" stroke="#231815" stroke-width="0.6464" stroke-miterlimit="10" d="M114.803,124.321
			c0,0-2.048,5.676-2.314,5.676c0,0-7.105,3.555-7.727,4.04c0,0,12.465,30.894,19.253,38.758"/>
		<path fill="none" stroke="#231815" stroke-width="0.6464" stroke-miterlimit="10" d="M89.972,128.706
			c0,0,8.511,6.708,9.374,13.602c0,0,2.477,6.789,2.908,7.971c0,0,4.306,20.253,4.416,22.517"/>
		<path fill="none" stroke="#231815" stroke-width="0.6464" stroke-miterlimit="10" d="M104.762,171.61c0,0,4.497,2.371,3.634,6.786
			c0,0,12.629,15.865,14.434,18.527"/>
		<path fill="none" stroke="#231815" stroke-width="0.6464" stroke-miterlimit="10" d="M110.895,118.076
			c0,0-5.592,7.156-6.133,9.579c0,0,4.951,3.062,5.76,2.902"/>
		<path fill="#F4E7C7" stroke="#231815" stroke-width="0.6464" stroke-miterlimit="10" d="M116.151,112.68v3.343
			c0,0,4.74,8.186,10.341,10.019c0,0,9.913-6.463,12.713-11.635v-2.695L116.151,112.68z"/>
		<path fill="#FFFFFF" stroke="#231815" stroke-width="0.6464" stroke-miterlimit="10" d="M117.336,117.852
			c0,0-1.292,10.557-1.185,11.742c0,0,5.925-4.306,10.341-3.552L117.336,117.852z"/>
		<path fill="#FFFFFF" stroke="#231815" stroke-width="0.6464" stroke-miterlimit="10" d="M136.018,117.852
			c0,0,1.291,10.557,1.185,11.742c0,0-5.925-4.306-10.341-3.552L136.018,117.852z"/>
		<g>
			<path fill="none" stroke="#231815" stroke-width="0.6464" stroke-miterlimit="10" d="M137.267,146.642
				c0,0,1.625-0.423,2.583-4.362"/>
			<path fill="#89BC9B" stroke="#231815" stroke-width="0.6464" stroke-miterlimit="10" d="M139.974,142.4
				c0,0-1.051,0.566-1.012,1.938c0,0,2.174,1.698,5.049,0.163c0,0,2.507-3.272,4.808-2.465c0,0-2.225-2.093-4.929-0.927l-2.95,0.162
				L139.974,142.4z"/>
			<path fill="#F7C6BD" stroke="#231815" stroke-width="0.6464" stroke-miterlimit="10" d="M139.974,142.4
				c0,0,1.535,0.202,2.098-0.849c0,0,1.659,0.729,3.559-2.02c0,0,1.331-0.726,1.655-1.575c0,0-0.042-1.294-0.604-1.252
				c0,0,0.322-1.656-1.457-1.496c0,0-0.322-1.493-1.597-0.888c0,0-0.583-0.768-1.634-0.524c0,0-1.213-0.824-1.779-0.048
				c0,0-0.484,0.409-0.24,1.098c0,0-2.385-0.244-2.264,2.18c0,0,0.526,1.051,1.05,1.454c0,0-0.403,0.771,0.687,1.536
				C139.446,140.016,138.923,141.47,139.974,142.4z"/>
			<path fill="none" stroke="#231815" stroke-width="0.6464" stroke-miterlimit="10" d="M146.801,136.729c0,0-0.406-0.378-0.757,0
				c0,0-2.157,1.995-3.549,1.185c0,0-2.704,0.037-3.099,2.281"/>
			<path fill="none" stroke="#231815" stroke-width="0.6464" stroke-miterlimit="10" d="M143.1,139.251c0,0,2.278-0.325,2.665,0.202
				"/>
			<path fill="none" stroke="#231815" stroke-width="0.6464" stroke-miterlimit="10" d="M141.683,138.032
				c0,0-2.256-0.451-1.76-3.373"/>
			<path fill="none" stroke="#231815" stroke-width="0.6464" stroke-miterlimit="10" d="M143.192,133.959c0,0-1.07,0.4-0.697,1.454
				c0,0,0.294,0.591,0.604,0.753c0,0,1.519-0.863,0.631-1.886L143.192,133.959z"/>
			<path fill="none" stroke="#231815" stroke-width="0.6464" stroke-miterlimit="10" d="M140.001,136.449
				c0,0,1.037-1.63,1.438-1.577c0,0-0.507,1.776,1.661,1.294c0,0,0.306,0.681,1.653,0.179c0,0,0.266,1.151,0.095,1.247"/>
			<path fill="none" stroke="#231815" stroke-width="0.6464" stroke-miterlimit="10" d="M145.224,135.208
				c0,0,0.902,1.087,0.82,1.521"/>
			<path fill="none" stroke="#231815" stroke-width="0.6464" stroke-miterlimit="10" d="M141.332,138.938
				c0,0-1.373-0.353-1.482,0.188"/>
			<path fill="none" stroke="#231815" stroke-width="0.6464" stroke-miterlimit="10" d="M139.463,139.921
				c0,0,1.628-0.362,2.608,1.63"/>
			<path fill="#89BC9B" stroke="#231815" stroke-width="0.6464" stroke-miterlimit="10" d="M136.698,139.301
				c0,0-0.4,2.564,0.406,3.116c0,0,1.854,0.874,1.854,1.398l0.244-0.569C139.203,143.246,138.194,139.069,136.698,139.301z"/>
		</g>
		<path fill="#3E3A39" stroke="#231815" stroke-width="0.6464" stroke-miterlimit="10" d="M154.648,93.854c0,0-0.754,4.524,0,5.709
			c0,0-1.454-1.25-1.938-2.37c0,0,0.646,4.309-4.203,6.032l2.589-9.371H154.648z"/>
		<path fill="#F4E7C7" stroke="#231815" stroke-width="0.6464" stroke-miterlimit="10" d="M156.049,80.445
			c0,0,5.604,0.608,3.987,8.363c0,0-1.62,6.573-8.834,7.436l-1.076-2.048v-4.093L156.049,80.445z"/>
		<path fill="#F4E7C7" stroke="#231815" stroke-width="0.6464" stroke-miterlimit="10" d="M155.211,87.507
			c0,0-6.771,16.558-11.287,21.579c0,0-8.029,9.786-18.567,9.534c0,0-11.79-1.507-18.563-12.546c0,0-7.78-10.787-7.78-18.567
			c0,0-3.763-20.572,1.756-30.229c0,0,12.296-22.705,25.719-21.449c0,0,15.176-2.323,25.461,16.776
			C151.95,52.605,158.977,72.455,155.211,87.507z"/>
		<path fill="none" stroke="#717071" stroke-width="1.1476" stroke-linecap="round" stroke-miterlimit="10" d="M135.477,74.191
			c0,0,6.819-4.295,12.576-2.042"/>
		<path fill="none" stroke="#717071" stroke-width="1.1476" stroke-linecap="round" stroke-miterlimit="10" d="M118.56,73.74
			c0,0-9.873-5.074-15.653,0"/>
		<g>
			<path fill="#3E3A39" stroke="#231815" stroke-width="0.6464" stroke-miterlimit="10" d="M135.689,36.002
				c0,0,3.771-0.754,10.882,2.37c0,0,10.772,4.415,13.249,10.125c0,0-5.71-5.172-10.128-4.847c0,0,5.278,0.969,11.744,9.59
				c0,0,7.325,11.526,5.385,19.281c0,0,0.219-4.631-5.063-10.988c0,0,3.34,5.603,2.37,10.988c0,0-2.477,8.405,0.754,10.666
				c0,0-3.446-1.401-4.632-4.309c0,0,0.863,4.309-0.321,5.71c0,0-1.186-1.939-2.586-1.401c0,0-1.295,7.217-5.278,8.618
				c0,0,2.37-5.816,1.613-14.221c0,0,0.216,0.863-2.799-2.799c0,0-9.806-3.611-15.19-13.061c0,0,3.502,11.31,4.631,12.117
				c0,0-8.401-4.769-11.876-9.977c0,0,0.081,4.967,1.373,6.18c0,0-7.111-7.029-7.433-12.848c0,0-3.393,8.161,0,13.092
				c0,0-7.352-3.236-8.724-15.19c0,0-5.819,7.352-4.446,12.683c0,0-2.502-3.958-2.261-7.836c0,0-4.769,9.371-3.393,18.583
				c0,0-3.88-2.908-4.365-8.24c0,0-2.667,10.663,0.403,16.076c0,0-4.281-3.474-5.009-5.897c0,0-1.992,0.997-1.886,3.261
				c0,0-8.732-14.543-0.002-29.518c0,0-3.766,2.692-4.951,5.385c0,0,4.202-17.504,21.976-23.671c0,0,3.449-1.106,8.08-1.538
				c0,0-0.969-3.337-5.494-2.905c0,0,4.631-3.446,11.094,2.583C123.407,34.063,129.979,27.712,135.689,36.002z"/>
			<path fill="none" stroke="#231815" stroke-width="0.6464" stroke-miterlimit="10" d="M157.125,79.175
				c0,0,0.434,3.057,0.219,4.012"/>
			<path fill="none" stroke="#231815" stroke-width="0.6464" stroke-miterlimit="10" d="M130.546,36.353
				c0,0,2.423,5.494,9.774,5.009c0,0-4.415-3.284-4.631-5.359"/>
			<path fill="none" stroke="#231815" stroke-width="0.6464" stroke-miterlimit="10" d="M110.749,40.715
				c0,0-4.121,5.738-0.726,8.564c0,0-5.738-1.776-3.07-9.049"/>
			<path fill="none" stroke="#231815" stroke-width="0.6464" stroke-miterlimit="10" d="M146.678,51.193
				c0,0,5.497,0.106,7.651,8.186c0,0,1.397,13.358,5.707,15.835c0,0-7.648-1.216-10.344-6.477"/>
			<path fill="none" stroke="#231815" stroke-width="0.6464" stroke-miterlimit="10" d="M144.201,58.625
				c0,0,4.74,6.141,6.138,12.389c0,0-0.069,3.174,1.32,4.701"/>
			<path fill="none" stroke="#231815" stroke-width="0.6464" stroke-miterlimit="10" d="M93.889,74.354c0,0-0.669,5.572,2.048,8.382
				"/>
		</g>
		<path fill="none" stroke="#231815" stroke-width="0.6464" stroke-miterlimit="10" d="M115.243,100.342c0,0,10.353,4.97,23.601,0"
			/>
		<polyline fill="none" stroke="#231815" stroke-width="0.6464" stroke-miterlimit="10" points="126.889,88.342 126.396,92.884 
			127.688,93.854 		"/>
		<g>
			<path fill="#4D514F" stroke="#231815" stroke-width="0.6464" stroke-miterlimit="10" d="M141.78,78.108
				c0,0,1.88,0.446,1.561,3.527c0,0-0.328,2.435-2.157,2.482c0,0-1.776-0.199-2.045-2.482
				C139.139,81.635,138.556,77.909,141.78,78.108z"/>
			<path fill="#FFFFFF" stroke="#231815" stroke-width="0.6464" stroke-linecap="round" stroke-miterlimit="10" d="M141.234,79.302
				c0,0,0.546-0.199,0.546,1.289c0,0,0.207,1.717-0.546,1.617c0,0-0.751,0.118-0.751-1.457
				C140.483,80.75,140.424,79.425,141.234,79.302z"/>
			<g>
				<path fill="#4D514F" stroke="#231815" stroke-width="0.6464" stroke-miterlimit="10" d="M112.391,77.923
					c0,0,1.877,0.445,1.555,3.524c0,0-0.322,2.438-2.154,2.485c0,0-1.776-0.202-2.045-2.485
					C109.746,81.448,109.166,77.724,112.391,77.923z"/>
				<path fill="#FFFFFF" stroke="#231815" stroke-width="0.6464" stroke-linecap="round" stroke-miterlimit="10" d="M111.844,79.117
					c0,0,0.546-0.199,0.546,1.289c0,0,0.208,1.717-0.546,1.616c0,0-0.753,0.115-0.753-1.457
					C111.091,80.565,111.035,79.237,111.844,79.117z"/>
			</g>
		</g>
		<path fill="none" stroke="#231815" stroke-width="0.6464" stroke-linecap="round" stroke-miterlimit="10" d="M147.93,79.041
			c0,0-3.947-4.569-10.84-0.232"/>
		<path fill="none" stroke="#231815" stroke-width="0.6464" stroke-linecap="round" stroke-miterlimit="10" d="M117.212,79.318
			c0,0-4.589-5.345-11.688,0.818"/>
		
			<path fill="none" stroke="#231815" stroke-width="0.6464" stroke-linecap="round" stroke-linejoin="round" stroke-miterlimit="10" d="
			M105.58,78.943c0,0,4.228-2.479,7.189-1.759"/>
		<path fill="#F5E6BE" stroke="#231815" stroke-width="0.6464" stroke-miterlimit="10" d="M131.529,196.816
			c0,0-5.402,2.37-6.024,3.393c0,0-2.46,2.908-3.348,2.908c0,0-2.83,1.213,0,2.345c0,0,2.255,0.403,3.348-0.403
			c0,0,2.309-2.264,2.67-1.457c0,0-0.734,1.737-1.961,1.961c0,0-1.877,1.191-1.877,1.676c0,0-0.969,1.616-2.098,1.616
			c0,0-3.071,1.132-3.233,1.535c0,0-1.779,2.021,1.132,2.262h0.729c0,0,0.485,3.073,3.796,2.586c0,0-1.373,2.989,3.878,2.02
			l0.969-0.322c0,0,0.081,1.031,3.959,0.516c0,0,5.897-1.566,7.189-2.857c0,0,4.364-5.335,5.012-6.223l-5.497-10.019l-3.541-2.934
			L131.529,196.816z"/>
		<path fill="none" stroke="#231815" stroke-width="0.6464" stroke-miterlimit="10" d="M129.994,201.016
			c0,0-1.696,1.457-1.819,2.586"/>
		<path fill="none" stroke="#231815" stroke-width="0.6464" stroke-miterlimit="10" d="M131.691,207.886
			c0,0-3.287,1.535-3.908,2.345c0,0-2.393,1.857-3.886,1.857c0,0-2.309,0.563-3.031,0.563"/>
		<path fill="none" stroke="#231815" stroke-width="0.6464" stroke-miterlimit="10" d="M135.112,209.905
			c0,0-5.646,2.746-6.026,3.393c0,0-2.897,1.989-4.424,1.939"/>
		<path fill="none" stroke="#231815" stroke-width="0.6464" stroke-miterlimit="10" d="M137.589,213.217
			c0,0-3.877,1.701-4.605,2.023c0,0-2.021,1.775-3.475,1.694"/>
		<path fill="#DBDCDC" stroke="#231815" stroke-width="0.6464" stroke-miterlimit="10" d="M131.63,211.685
			c0,0,1.541,3.23,3.482,3.124c0,0,0.661-0.003,0.863-0.487c0,0-3.046-2.262-3.06-3.312
			C132.916,211.01,131.924,211.527,131.63,211.685z"/>
	</g>
</g>
</svg>
